<?xml version="1.0" encoding="UTF-8"?>
<svg width="209.84mm" height="108.54mm" version="1.1" xmlns="http://www.w3.org/2000/svg" xmlns:xlink="http://www.w3.org/1999/xlink"><g transform="matrix(1.9546 0 0 1.9546 -439.59 91.061)"><path d="m378.52 18.6h3.72v3.72h-3.72zm-3.72 0h3.72v3.72h-3.72zm-3.72 0h3.72v3.72h-3.72zm14.88-14.88h3.72v3.72h-3.72zm-22.32 0h3.72v3.72h-3.72zm18.6-3.72h3.72v3.72h-3.72zm-3.72 0h3.72v3.72h-3.72zm-3.72 0h3.72v3.72h-3.72zm-3.72 0h3.72v3.72h-3.72zm-3.72 0h3.72v3.72h-3.72z" fill="#e4a26a"/><path d="m385.96 40.92h3.72v3.72h-3.72zm-3.72 0h3.72v3.72h-3.72zm3.72-3.72h3.72v3.72h-3.72zm-3.72 0h3.72v3.72h-3.72zm3.72-3.72h3.72v3.72h-3.72zm-3.72 0h3.72v3.72h-3.72zm3.72-3.72h3.72v3.72h-3.72zm-3.72 0h3.72v3.72h-3.72zm3.72-3.72h3.72v3.72h-3.72zm-3.72 0h3.72v3.72h-3.72zm3.72-3.72h3.72v3.72h-3.72zm-3.72 0h3.72v3.72h-3.72zm-3.72 0h3.72v3.72h-3.72zm-3.72 0h3.72v3.72h-3.72zm-3.72 0h3.72v3.72h-3.72zm14.88-3.72h3.72v3.72h-3.72zm-3.72 0h3.72v3.72h-3.72zm3.72-3.72h3.72v3.72h-3.72zm-3.72 0h3.72v3.72h-3.72zm3.72-3.72h3.72v3.72h-3.72zm-3.72 0h3.72v3.72h-3.72zm3.72-3.72h3.72v3.72h-3.72zm-3.72 0h3.72v3.72h-3.72zm0-3.72h3.72v3.72h-3.72zm-3.72 0h3.72v3.72h-3.72zm-3.72 0h3.72v3.72h-3.72zm-3.72 0h3.72v3.72h-3.72zm-3.72 0h3.72v3.72h-3.72zm0 37.2h3.72v3.72h-3.72zm-3.72 0h3.72v3.72h-3.72zm3.72-3.72h3.72v3.72h-3.72zm-3.72 0h3.72v3.72h-3.72zm3.72-3.72h3.72v3.72h-3.72zm-3.72 0h3.72v3.72h-3.72zm3.72-3.72h3.72v3.72h-3.72zm-3.72 0h3.72v3.72h-3.72zm3.72-3.72h3.72v3.72h-3.72zm-3.72 0h3.72v3.72h-3.72zm3.72-3.72h3.72v3.72h-3.72zm-3.72 0h3.72v3.72h-3.72zm3.72-3.72h3.72v3.72h-3.72zm-3.72 0h3.72v3.72h-3.72zm3.72-3.72h3.72v3.72h-3.72zm-3.72 0h3.72v3.72h-3.72zm3.72-3.72h3.72v3.72h-3.72zm-3.72 0h3.72v3.72h-3.72zm3.72-3.72h3.72v3.72h-3.72zm-3.72 0h3.72v3.72h-3.72z" fill="#ce8a51"/><path d="m382.24 44.64h3.72v3.72h-3.72zm-3.72 0h3.72v3.72h-3.72zm-14.88 0h3.72v3.72h-3.72zm-3.72 0h3.72v3.72h-3.72zm18.6-3.72h3.72v3.72h-3.72zm-18.6 0h3.72v3.72h-3.72zm18.6-3.72h3.72v3.72h-3.72zm-18.6 0h3.72v3.72h-3.72zm18.6-3.72h3.72v3.72h-3.72zm-18.6 0h3.72v3.72h-3.72zm18.6-3.72h3.72v3.72h-3.72zm-18.6 0h3.72v3.72h-3.72zm18.6-3.72h3.72v3.72h-3.72zm-3.72 0h3.72v3.72h-3.72zm-3.72 0h3.72v3.72h-3.72zm-11.16 0h3.72v3.72h-3.72zm0-3.72h3.72v3.72h-3.72zm0-3.72h3.72v3.72h-3.72zm18.6-3.72h3.72v3.72h-3.72zm-18.6 0h3.72v3.72h-3.72zm18.6-3.72h3.72v3.72h-3.72zm-18.6 0h3.72v3.72h-3.72zm18.6-3.72h3.72v3.72h-3.72zm-3.72 0h3.72v3.72h-3.72zm-3.72 0h3.72v3.72h-3.72zm-11.16 0h3.72v3.72h-3.72z" opacity=".20784"/></g><g transform="matrix(1.9546 0 0 1.9546 -272.56 91.061)"><path d="m378.52 18.6h3.72v3.72h-3.72zm-3.72 0h3.72v3.72h-3.72zm-3.72 0h3.72v3.72h-3.72zm14.88-14.88h3.72v3.72h-3.72zm-22.32 0h3.72v3.72h-3.72zm18.6-3.72h3.72v3.72h-3.72zm-3.72 0h3.72v3.72h-3.72zm-3.72 0h3.72v3.72h-3.72zm-3.72 0h3.72v3.72h-3.72zm-3.72 0h3.72v3.72h-3.72z" fill="#e4a26a"/><path d="m385.96 40.92h3.72v3.72h-3.72zm-3.72 0h3.72v3.72h-3.72zm3.72-3.72h3.72v3.72h-3.72zm-3.72 0h3.72v3.72h-3.72zm3.72-3.72h3.72v3.72h-3.72zm-3.72 0h3.72v3.72h-3.72zm3.72-3.72h3.72v3.72h-3.72zm-3.72 0h3.72v3.72h-3.72zm3.72-3.72h3.72v3.72h-3.72zm-3.72 0h3.72v3.72h-3.72zm3.72-3.72h3.72v3.72h-3.72zm-3.72 0h3.72v3.72h-3.72zm-3.72 0h3.72v3.72h-3.72zm-3.72 0h3.72v3.72h-3.72zm-3.72 0h3.72v3.72h-3.72zm14.88-3.72h3.72v3.72h-3.72zm-3.72 0h3.72v3.72h-3.72zm3.72-3.72h3.72v3.72h-3.72zm-3.72 0h3.72v3.72h-3.72zm3.72-3.72h3.72v3.72h-3.72zm-3.72 0h3.72v3.72h-3.72zm3.72-3.72h3.72v3.72h-3.72zm-3.72 0h3.72v3.72h-3.72zm0-3.72h3.72v3.72h-3.72zm-3.72 0h3.72v3.72h-3.72zm-3.72 0h3.72v3.72h-3.72zm-3.72 0h3.72v3.72h-3.72zm-3.72 0h3.72v3.72h-3.72zm0 37.2h3.72v3.72h-3.72zm-3.72 0h3.72v3.72h-3.72zm3.72-3.72h3.72v3.72h-3.72zm-3.72 0h3.72v3.72h-3.72zm3.72-3.72h3.72v3.72h-3.72zm-3.72 0h3.72v3.72h-3.72zm3.72-3.72h3.72v3.72h-3.72zm-3.72 0h3.72v3.72h-3.72zm3.72-3.72h3.72v3.72h-3.72zm-3.72 0h3.72v3.72h-3.72zm3.72-3.72h3.72v3.72h-3.72zm-3.72 0h3.72v3.72h-3.72zm3.72-3.72h3.72v3.72h-3.72zm-3.72 0h3.72v3.72h-3.72zm3.72-3.72h3.72v3.72h-3.72zm-3.72 0h3.72v3.72h-3.72zm3.72-3.72h3.72v3.72h-3.72zm-3.72 0h3.72v3.72h-3.72zm3.72-3.72h3.72v3.72h-3.72zm-3.72 0h3.72v3.72h-3.72z" fill="#ce8a51"/><path d="m382.24 44.64h3.72v3.72h-3.72zm-3.72 0h3.72v3.72h-3.72zm-14.88 0h3.72v3.72h-3.72zm-3.72 0h3.72v3.72h-3.72zm18.6-3.72h3.72v3.72h-3.72zm-18.6 0h3.72v3.72h-3.72zm18.6-3.72h3.72v3.72h-3.72zm-18.6 0h3.72v3.72h-3.72zm18.6-3.72h3.72v3.72h-3.72zm-18.6 0h3.72v3.72h-3.72zm18.6-3.72h3.72v3.72h-3.72zm-18.6 0h3.72v3.72h-3.72zm18.6-3.72h3.72v3.72h-3.72zm-3.72 0h3.72v3.72h-3.72zm-3.72 0h3.72v3.72h-3.72zm-11.16 0h3.72v3.72h-3.72zm0-3.72h3.72v3.72h-3.72zm0-3.72h3.72v3.72h-3.72zm18.6-3.72h3.72v3.72h-3.72zm-18.6 0h3.72v3.72h-3.72zm18.6-3.72h3.72v3.72h-3.72zm-18.6 0h3.72v3.72h-3.72zm18.6-3.72h3.72v3.72h-3.72zm-3.72 0h3.72v3.72h-3.72zm-3.72 0h3.72v3.72h-3.72zm-11.16 0h3.72v3.72h-3.72z" opacity=".20784"/></g><g transform="translate(-297.16)"><path d="m378.52 18.6h3.72v3.72h-3.72zm-3.72 0h3.72v3.72h-3.72zm-3.72 0h3.72v3.72h-3.72zm14.88-14.88h3.72v3.72h-3.72zm-22.32 0h3.72v3.72h-3.72zm18.6-3.72h3.72v3.72h-3.72zm-3.72 0h3.72v3.72h-3.72zm-3.72 0h3.72v3.72h-3.72zm-3.72 0h3.72v3.72h-3.72zm-3.72 0h3.72v3.72h-3.72z" fill="#e4a26a"/><path d="m385.96 40.92h3.72v3.72h-3.72zm-3.72 0h3.72v3.72h-3.72zm3.72-3.72h3.72v3.72h-3.72zm-3.72 0h3.72v3.72h-3.72zm3.72-3.72h3.72v3.72h-3.72zm-3.72 0h3.72v3.72h-3.72zm3.72-3.72h3.72v3.72h-3.72zm-3.72 0h3.72v3.72h-3.72zm3.72-3.72h3.72v3.72h-3.72zm-3.72 0h3.72v3.72h-3.72zm3.72-3.72h3.72v3.72h-3.72zm-3.72 0h3.72v3.72h-3.72zm-3.72 0h3.72v3.72h-3.72zm-3.72 0h3.72v3.72h-3.72zm-3.72 0h3.72v3.72h-3.72zm14.88-3.72h3.72v3.72h-3.72zm-3.72 0h3.72v3.72h-3.72zm3.72-3.72h3.72v3.72h-3.72zm-3.72 0h3.72v3.72h-3.72zm3.72-3.72h3.72v3.72h-3.72zm-3.72 0h3.72v3.72h-3.72zm3.72-3.72h3.72v3.72h-3.72zm-3.72 0h3.72v3.72h-3.72zm0-3.72h3.72v3.72h-3.72zm-3.72 0h3.72v3.72h-3.72zm-3.72 0h3.72v3.72h-3.72zm-3.72 0h3.72v3.72h-3.72zm-3.72 0h3.72v3.72h-3.72zm0 37.2h3.72v3.72h-3.72zm-3.72 0h3.72v3.72h-3.72zm3.72-3.72h3.72v3.72h-3.72zm-3.72 0h3.72v3.72h-3.72zm3.72-3.72h3.72v3.72h-3.72zm-3.72 0h3.72v3.72h-3.72zm3.72-3.72h3.72v3.72h-3.72zm-3.72 0h3.72v3.72h-3.72zm3.72-3.72h3.72v3.72h-3.72zm-3.72 0h3.72v3.72h-3.72zm3.72-3.72h3.72v3.72h-3.72zm-3.72 0h3.72v3.72h-3.72zm3.72-3.72h3.72v3.72h-3.72zm-3.72 0h3.72v3.72h-3.72zm3.72-3.72h3.72v3.72h-3.72zm-3.72 0h3.72v3.72h-3.72zm3.72-3.72h3.72v3.72h-3.72zm-3.72 0h3.72v3.72h-3.72zm3.72-3.72h3.72v3.72h-3.72zm-3.72 0h3.72v3.72h-3.72z" fill="#ce8a51"/><path d="m382.24 44.64h3.72v3.72h-3.72zm-3.72 0h3.72v3.72h-3.72zm-14.88 0h3.72v3.72h-3.72zm-3.72 0h3.72v3.72h-3.72zm18.6-3.72h3.72v3.72h-3.72zm-18.6 0h3.72v3.72h-3.72zm18.6-3.72h3.72v3.72h-3.72zm-18.6 0h3.72v3.72h-3.72zm18.6-3.72h3.72v3.72h-3.72zm-18.6 0h3.72v3.72h-3.72zm18.6-3.72h3.72v3.72h-3.72zm-18.6 0h3.72v3.72h-3.72zm18.6-3.72h3.72v3.72h-3.72zm-3.72 0h3.72v3.72h-3.72zm-3.72 0h3.72v3.72h-3.72zm-11.16 0h3.72v3.72h-3.72zm0-3.72h3.72v3.72h-3.72zm0-3.72h3.72v3.72h-3.72zm18.6-3.72h3.72v3.72h-3.72zm-18.6 0h3.72v3.72h-3.72zm18.6-3.72h3.72v3.72h-3.72zm-18.6 0h3.72v3.72h-3.72zm18.6-3.72h3.72v3.72h-3.72zm-3.72 0h3.72v3.72h-3.72zm-3.72 0h3.72v3.72h-3.72zm-11.16 0h3.72v3.72h-3.72z" opacity=".20784"/></g><g transform="translate(-247.69)"><path d="m497.56 37.2h3.72v3.72h-3.72zm-3.72 0h3.72v3.72h-3.72zm-3.72 0h3.72v3.72h-3.72zm-3.72 0h3.72v3.72h-3.72zm7.44-18.6h3.72v3.72h-3.72zm-3.72 0h3.72v3.72h-3.72zm-3.72 0h3.72v3.72h-3.72zm11.16-18.6h3.72v3.72h-3.72zm-3.72 0h3.72v3.72h-3.72zm-3.72 0h3.72v3.72h-3.72zm-3.72 0h3.72v3.72h-3.72zm-3.72 0h3.72v3.72h-3.72zm-3.72 0h3.72v3.72h-3.72z" fill="#e4a26a"/><path d="m497.56 40.92h3.72v3.72h-3.72zm-3.72 0h3.72v3.72h-3.72zm-3.72 0h3.72v3.72h-3.72zm-3.72 0h3.72v3.72h-3.72zm-3.72 0h3.72v3.72h-3.72zm-3.72 0h3.72v3.72h-3.72zm3.72-3.72h3.72v3.72h-3.72zm-3.72 0h3.72v3.72h-3.72zm3.72-3.72h3.72v3.72h-3.72zm-3.72 0h3.72v3.72h-3.72zm3.72-3.72h3.72v3.72h-3.72zm-3.72 0h3.72v3.72h-3.72zm3.72-3.72h3.72v3.72h-3.72zm-3.72 0h3.72v3.72h-3.72zm3.72-3.72h3.72v3.72h-3.72zm-3.72 0h3.72v3.72h-3.72zm3.72-3.72h3.72v3.72h-3.72zm-3.72 0h3.72v3.72h-3.72zm3.72-3.72h3.72v3.72h-3.72zm-3.72 0h3.72v3.72h-3.72zm3.72-3.72h3.72v3.72h-3.72zm-3.72 0h3.72v3.72h-3.72zm3.72-3.72h3.72v3.72h-3.72zm-3.72 0h3.72v3.72h-3.72zm3.72-3.72h3.72v3.72h-3.72zm-3.72 0h3.72v3.72h-3.72zm14.88 18.6h3.72v3.72h-3.72zm-3.72 0h3.72v3.72h-3.72zm-3.72 0h3.72v3.72h-3.72zm11.16-18.6h3.72v3.72h-3.72zm-3.72 0h3.72v3.72h-3.72zm-3.72 0h3.72v3.72h-3.72zm-3.72 0h3.72v3.72h-3.72z" fill="#ce8a51"/><path d="m493.84 44.64h3.72v3.72h-3.72zm-3.72 0h3.72v3.72h-3.72zm-3.72 0h3.72v3.72h-3.72zm-3.72 0h3.72v3.72h-3.72zm-3.72 0h3.72v3.72h-3.72zm-3.72 0h3.72v3.72h-3.72zm0-3.72h3.72v3.72h-3.72zm0-3.72h3.72v3.72h-3.72zm0-3.72h3.72v3.72h-3.72zm0-3.72h3.72v3.72h-3.72zm14.88-3.72h3.72v3.72h-3.72zm-3.72 0h3.72v3.72h-3.72zm-11.16 0h3.72v3.72h-3.72zm0-3.72h3.72v3.72h-3.72zm0-3.72h3.72v3.72h-3.72zm0-3.72h3.72v3.72h-3.72zm0-3.72h3.72v3.72h-3.72zm18.6-3.72h3.72v3.72h-3.72zm-3.72 0h3.72v3.72h-3.72zm-3.72 0h3.72v3.72h-3.72zm-11.16 0h3.72v3.72h-3.72zm0-3.72h3.72v3.72h-3.72z" opacity=".20784"/></g><g transform="translate(-215.36)"><g transform="translate(-1.7966)"><path d="m545.92 37.2h3.72v3.72h-3.72zm-3.72 0h3.72v3.72h-3.72zm-3.72-3.72h3.72v3.72h-3.72zm14.88-14.88h3.72v3.72h-3.72zm-3.72 0h3.72v3.72h-3.72zm-3.72 0h3.72v3.72h-3.72zm-14.88-14.88h3.72v3.72h-3.72zm22.32-3.72h3.72v3.72h-3.72zm-3.72 0h3.72v3.72h-3.72zm-3.72 0h3.72v3.72h-3.72zm-3.72 0h3.72v3.72h-3.72zm-3.72 0h3.72v3.72h-3.72zm-3.72 0h3.72v3.72h-3.72z" fill="#e4a26a"/><path d="m553.36 40.92h3.72v3.72h-3.72zm-3.72 0h3.72v3.72h-3.72zm-3.72 0h3.72v3.72h-3.72zm-3.72 0h3.72v3.72h-3.72zm-3.72 0h3.72v3.72h-3.72zm-3.72 0h3.72v3.72h-3.72zm3.72-3.72h3.72v3.72h-3.72zm-3.72 0h3.72v3.72h-3.72zm-3.72 0h3.72v3.72h-3.72zm3.72-3.72h3.72v3.72h-3.72zm-3.72 0h3.72v3.72h-3.72zm3.72-3.72h3.72v3.72h-3.72zm-3.72 0h3.72v3.72h-3.72zm3.72-3.72h3.72v3.72h-3.72zm-3.72 0h3.72v3.72h-3.72zm3.72-3.72h3.72v3.72h-3.72zm-3.72 0h3.72v3.72h-3.72zm3.72-3.72h3.72v3.72h-3.72zm-3.72 0h3.72v3.72h-3.72zm3.72-3.72h3.72v3.72h-3.72zm-3.72 0h3.72v3.72h-3.72zm3.72-3.72h3.72v3.72h-3.72zm-3.72 0h3.72v3.72h-3.72zm7.44-3.72h3.72v3.72h-3.72zm-3.72 0h3.72v3.72h-3.72zm-3.72 0h3.72v3.72h-3.72zm22.32 29.76h3.72v3.72h-3.72zm-3.72 0h3.72v3.72h-3.72zm3.72-3.72h3.72v3.72h-3.72zm-3.72 0h3.72v3.72h-3.72zm3.72-3.72h3.72v3.72h-3.72zm-3.72 0h3.72v3.72h-3.72zm3.72-3.72h3.72v3.72h-3.72zm-3.72 0h3.72v3.72h-3.72zm3.72-3.72h3.72v3.72h-3.72zm-3.72 0h3.72v3.72h-3.72zm-3.72 0h3.72v3.72h-3.72zm7.44-18.6h3.72v3.72h-3.72zm-3.72 0h3.72v3.72h-3.72zm-3.72 0h3.72v3.72h-3.72zm-3.72 0h3.72v3.72h-3.72zm-3.72 0h3.72v3.72h-3.72zm-3.72 0h3.72v3.72h-3.72z" fill="#ce8a51"/><path d="m549.64 44.64h3.72v3.72h-3.72zm-3.72 0h3.72v3.72h-3.72zm-3.72 0h3.72v3.72h-3.72zm-3.72 0h3.72v3.72h-3.72zm-3.72 0h3.72v3.72h-3.72zm-3.72 0h3.72v3.72h-3.72zm0-3.72h3.72v3.72h-3.72zm-3.72 0h3.72v3.72h-3.72zm0-3.72h3.72v3.72h-3.72zm18.6-3.72h3.72v3.72h-3.72zm-18.6 0h3.72v3.72h-3.72zm18.6-3.72h3.72v3.72h-3.72zm-18.6 0h3.72v3.72h-3.72zm18.6-3.72h3.72v3.72h-3.72zm-3.72 0h3.72v3.72h-3.72zm-14.88 0h3.72v3.72h-3.72zm14.88-3.72h3.72v3.72h-3.72zm-14.88 0h3.72v3.72h-3.72zm0-3.72h3.72v3.72h-3.72zm0-3.72h3.72v3.72h-3.72zm0-3.72h3.72v3.72h-3.72zm22.32-3.72h3.72v3.72h-3.72zm-3.72 0h3.72v3.72h-3.72zm-3.72 0h3.72v3.72h-3.72zm-14.88 0h3.72v3.72h-3.72z" opacity=".20784"/></g></g><g class="UnoptimicedTransforms" transform="translate(-308.68)"><path d="m594.28 0h3.72v3.72h-3.72v-3.72zm-3.72 0h3.72v3.72h-3.72v-3.72z" fill="#e4a26a"/><path d="m590.56 3.7207v40.92h7.4394v-40.92h-3.7207z" fill="#ce8a51" xlink:href="#a"/><path id="a" d="m590.56 3.7207v3.7188 3.7207 3.7207 3.7188 3.7207 3.7188 3.7207 3.7207 3.7188 3.7207 3.7207h3.7207 3.7188v-3.7207-3.7207-3.7188-3.7207-3.7207-3.7188-3.7207-3.7188-3.7207-3.7207-3.7188h-3.7188-3.7207z" fill="#ce8a51"/><path d="m590.56 44.64h3.72v3.72h-3.72v-3.72zm-3.72 0h3.72v3.72h-3.72v-3.72zm0-3.72h3.72v3.72h-3.72v-3.72zm0-3.72h3.72v3.72h-3.72v-3.72zm0-3.72h3.72v3.72h-3.72v-3.72zm0-3.72h3.72v3.72h-3.72v-3.72zm0-3.72h3.72v3.72h-3.72v-3.72zm0-3.72h3.72v3.72h-3.72v-3.72zm0-3.72h3.72v3.72h-3.72v-3.72zm0-3.72h3.72v3.72h-3.72v-3.72zm0-3.72h3.72v3.72h-3.72v-3.72zm0-3.72h3.72v3.72h-3.72v-3.72zm0-3.72h3.72v3.72h-3.72v-3.72z" opacity=".20784"/></g><g transform="translate(-416.11)"><path d="m594.28 0h3.72v3.72h-3.72zm-3.72 0h3.72v3.72h-3.72z" fill="#e4a26a"/><path d="m594.28 40.92h3.72v3.72h-3.72zm-3.72 0h3.72v3.72h-3.72zm3.72-3.72h3.72v3.72h-3.72zm-3.72 0h3.72v3.72h-3.72zm3.72-3.72h3.72v3.72h-3.72zm-3.72 0h3.72v3.72h-3.72zm3.72-3.72h3.72v3.72h-3.72zm-3.72 0h3.72v3.72h-3.72zm3.72-3.72h3.72v3.72h-3.72zm-3.72 0h3.72v3.72h-3.72zm3.72-3.72h3.72v3.72h-3.72zm-3.72 0h3.72v3.72h-3.72zm3.72-3.72h3.72v3.72h-3.72zm-3.72 0h3.72v3.72h-3.72zm3.72-3.72h3.72v3.72h-3.72zm-3.72 0h3.72v3.72h-3.72zm3.72-3.72h3.72v3.72h-3.72zm-3.72 0h3.72v3.72h-3.72zm3.72-3.72h3.72v3.72h-3.72zm-3.72 0h3.72v3.72h-3.72zm3.72-3.72h3.72v3.72h-3.72zm-3.72 0h3.72v3.72h-3.72z" fill="#ce8a51"/><path d="m590.56 44.64h3.72v3.72h-3.72zm-3.72 0h3.72v3.72h-3.72zm0-3.72h3.72v3.72h-3.72zm0-3.72h3.72v3.72h-3.72zm0-3.72h3.72v3.72h-3.72zm0-3.72h3.72v3.72h-3.72zm0-3.72h3.72v3.72h-3.72zm0-3.72h3.72v3.72h-3.72zm0-3.72h3.72v3.72h-3.72zm0-3.72h3.72v3.72h-3.72zm0-3.72h3.72v3.72h-3.72zm0-3.72h3.72v3.72h-3.72zm0-3.72h3.72v3.72h-3.72z" opacity=".20784"/></g><g transform="translate(-583.33)"><path d="m631.45 18.6h3.72v3.72h-3.72zm-3.72 0h3.72v3.72h-3.72zm-3.72 0h3.72v3.72h-3.72zm14.88-18.6h3.72v3.72h-3.72zm-3.72 0h3.72v3.72h-3.72zm-14.88 0h3.72v3.72h-3.72zm-3.72 0h3.72v3.72h-3.72z" fill="#e4a26a"/><path d="m638.89 40.92h3.72v3.72h-3.72zm-3.72 0h3.72v3.72h-3.72zm-14.88 0h3.72v3.72h-3.72zm-3.72 0h3.72v3.72h-3.72zm22.32-3.72h3.72v3.72h-3.72zm-3.72 0h3.72v3.72h-3.72zm-14.88 0h3.72v3.72h-3.72zm-3.72 0h3.72v3.72h-3.72zm22.32-3.72h3.72v3.72h-3.72zm-3.72 0h3.72v3.72h-3.72zm-14.88 0h3.72v3.72h-3.72zm-3.72 0h3.72v3.72h-3.72zm22.32-3.72h3.72v3.72h-3.72zm-3.72 0h3.72v3.72h-3.72zm-14.88 0h3.72v3.72h-3.72zm-3.72 0h3.72v3.72h-3.72zm22.32-3.72h3.72v3.72h-3.72zm-3.72 0h3.72v3.72h-3.72zm-14.88 0h3.72v3.72h-3.72zm-3.72 0h3.72v3.72h-3.72zm22.32-3.72h3.72v3.72h-3.72zm-3.72 0h3.72v3.72h-3.72zm-3.72 0h3.72v3.72h-3.72zm-3.72 0h3.72v3.72h-3.72zm-3.72 0h3.72v3.72h-3.72zm-3.72 0h3.72v3.72h-3.72zm-3.72 0h3.72v3.72h-3.72zm22.32-3.72h3.72v3.72h-3.72zm-3.72 0h3.72v3.72h-3.72zm-14.88 0h3.72v3.72h-3.72zm-3.72 0h3.72v3.72h-3.72zm22.32-3.72h3.72v3.72h-3.72zm-3.72 0h3.72v3.72h-3.72zm-14.88 0h3.72v3.72h-3.72zm-3.72 0h3.72v3.72h-3.72zm22.32-3.72h3.72v3.72h-3.72zm-3.72 0h3.72v3.72h-3.72zm-14.88 0h3.72v3.72h-3.72zm-3.72 0h3.72v3.72h-3.72zm22.32-3.72h3.72v3.72h-3.72zm-3.72 0h3.72v3.72h-3.72zm-14.88 0h3.72v3.72h-3.72zm-3.72 0h3.72v3.72h-3.72zm22.32-3.72h3.72v3.72h-3.72zm-3.72 0h3.72v3.72h-3.72zm-14.88 0h3.72v3.72h-3.72zm-3.72 0h3.72v3.72h-3.72z" fill="#ce8a51"/><path d="m635.17 44.64h3.72v3.72h-3.72zm-3.72 0h3.72v3.72h-3.72zm-14.88 0h3.72v3.72h-3.72zm-3.72 0h3.72v3.72h-3.72zm18.6-3.72h3.72v3.72h-3.72zm-18.6 0h3.72v3.72h-3.72zm18.6-3.72h3.72v3.72h-3.72zm-18.6 0h3.72v3.72h-3.72zm18.6-3.72h3.72v3.72h-3.72zm-18.6 0h3.72v3.72h-3.72zm18.6-3.72h3.72v3.72h-3.72zm-18.6 0h3.72v3.72h-3.72zm18.6-3.72h3.72v3.72h-3.72zm-3.72 0h3.72v3.72h-3.72zm-3.72 0h3.72v3.72h-3.72zm-11.16 0h3.72v3.72h-3.72zm0-3.72h3.72v3.72h-3.72zm0-3.72h3.72v3.72h-3.72zm18.6-3.72h3.72v3.72h-3.72zm-18.6 0h3.72v3.72h-3.72zm18.6-3.72h3.72v3.72h-3.72zm-18.6 0h3.72v3.72h-3.72zm18.6-3.72h3.72v3.72h-3.72zm-18.6 0h3.72v3.72h-3.72zm18.6-3.72h3.72v3.72h-3.72zm-18.6 0h3.72v3.72h-3.72z" opacity=".20784"/></g><g transform="translate(-501.16)"><path d="m705.88 11.16h3.72v3.72h-3.72zm3.72-3.72h3.72v3.72h-3.72zm-7.44 0h3.72v3.72h-3.72zm11.16-3.72h3.72v3.72h-3.72zm-14.88 0h3.72v3.72h-3.72zm22.32-3.72h3.72v3.72h-3.72zm-3.72 0h3.72v3.72h-3.72zm-22.32 0h3.72v3.72h-3.72zm-3.72 0h3.72v3.72h-3.72z" fill="#e4a26a"/><path d="m720.76 40.92h3.72v3.72h-3.72zm-3.72 0h3.72v3.72h-3.72zm-22.32 0h3.72v3.72h-3.72zm-3.72 0h3.72v3.72h-3.72zm3.72-3.72h3.72v3.72h-3.72zm-3.72 0h3.72v3.72h-3.72zm3.72-3.72h3.72v3.72h-3.72zm-3.72 0h3.72v3.72h-3.72zm3.72-3.72h3.72v3.72h-3.72zm-3.72 0h3.72v3.72h-3.72zm3.72-3.72h3.72v3.72h-3.72zm-3.72 0h3.72v3.72h-3.72zm3.72-3.72h3.72v3.72h-3.72zm-3.72 0h3.72v3.72h-3.72zm3.72-3.72h3.72v3.72h-3.72zm-3.72 0h3.72v3.72h-3.72zm3.72-3.72h3.72v3.72h-3.72zm-3.72 0h3.72v3.72h-3.72zm3.72-3.72h3.72v3.72h-3.72zm-3.72 0h3.72v3.72h-3.72zm3.72-3.72h3.72v3.72h-3.72zm-3.72 0h3.72v3.72h-3.72zm3.72-3.72h3.72v3.72h-3.72zm-3.72 0h3.72v3.72h-3.72zm14.88 14.88h3.72v3.72h-3.72zm0-3.72h3.72v3.72h-3.72zm-3.72 0h3.72v3.72h-3.72zm0-3.72h3.72v3.72h-3.72zm-3.72 0h3.72v3.72h-3.72zm0-3.72h3.72v3.72h-3.72zm11.16 7.44h3.72v3.72h-3.72zm3.72-3.72h3.72v3.72h-3.72zm-3.72 0h3.72v3.72h-3.72zm3.72-3.72h3.72v3.72h-3.72zm7.44 29.76h3.72v3.72h-3.72zm-3.72 0h3.72v3.72h-3.72zm3.72-3.72h3.72v3.72h-3.72zm-3.72 0h3.72v3.72h-3.72zm3.72-3.72h3.72v3.72h-3.72zm-3.72 0h3.72v3.72h-3.72zm3.72-3.72h3.72v3.72h-3.72zm-3.72 0h3.72v3.72h-3.72zm3.72-3.72h3.72v3.72h-3.72zm-3.72 0h3.72v3.72h-3.72zm3.72-3.72h3.72v3.72h-3.72zm-3.72 0h3.72v3.72h-3.72zm3.72-3.72h3.72v3.72h-3.72zm-3.72 0h3.72v3.72h-3.72zm3.72-3.72h3.72v3.72h-3.72zm-3.72 0h3.72v3.72h-3.72zm3.72-3.72h3.72v3.72h-3.72zm-3.72 0h3.72v3.72h-3.72zm3.72-3.72h3.72v3.72h-3.72zm-3.72 0h3.72v3.72h-3.72z" fill="#ce8a51"/><path d="m717.04 44.64h3.72v3.72h-3.72zm-3.72 0h3.72v3.72h-3.72zm-22.32 0h3.72v3.72h-3.72zm-3.72 0h3.72v3.72h-3.72zm26.04-3.72h3.72v3.72h-3.72zm-26.04 0h3.72v3.72h-3.72zm26.04-3.72h3.72v3.72h-3.72zm-26.04 0h3.72v3.72h-3.72zm26.04-3.72h3.72v3.72h-3.72zm-26.04 0h3.72v3.72h-3.72zm26.04-3.72h3.72v3.72h-3.72zm-26.04 0h3.72v3.72h-3.72zm26.04-3.72h3.72v3.72h-3.72zm-26.04 0h3.72v3.72h-3.72zm26.04-3.72h3.72v3.72h-3.72zm-11.16 0h3.72v3.72h-3.72zm-14.88 0h3.72v3.72h-3.72zm26.04-3.72h3.72v3.72h-3.72zm-11.16 0h3.72v3.72h-3.72zm-3.72 0h3.72v3.72h-3.72zm-11.16 0h3.72v3.72h-3.72zm26.04-3.72h3.72v3.72h-3.72zm-14.88 0h3.72v3.72h-3.72zm-11.16 0h3.72v3.72h-3.72zm0-3.72h3.72v3.72h-3.72zm0-3.72h3.72v3.72h-3.72zm0-3.72h3.72v3.72h-3.72z" opacity=".20784"/></g><g transform="translate(-414.59)"><path d="m776.56 37.2h3.72v3.72h-3.72zm-3.72 0h3.72v3.72h-3.72zm-3.72 0h3.72v3.72h-3.72zm14.88-33.48h3.72v3.72h-3.72zm-22.32 0h3.72v3.72h-3.72zm18.6-3.72h3.72v3.72h-3.72zm-3.72 0h3.72v3.72h-3.72zm-3.72 0h3.72v3.72h-3.72zm-3.72 0h3.72v3.72h-3.72zm-3.72 0h3.72v3.72h-3.72z" fill="#e4a26a"/><path d="m780.28 40.92h3.72v3.72h-3.72zm-3.72 0h3.72v3.72h-3.72zm-3.72 0h3.72v3.72h-3.72zm-3.72 0h3.72v3.72h-3.72zm-3.72 0h3.72v3.72h-3.72zm18.6-3.72h3.72v3.72h-3.72zm-3.72 0h3.72v3.72h-3.72zm-14.88 0h3.72v3.72h-3.72zm-3.72 0h3.72v3.72h-3.72zm22.32-3.72h3.72v3.72h-3.72zm-3.72 0h3.72v3.72h-3.72zm-14.88 0h3.72v3.72h-3.72zm-3.72 0h3.72v3.72h-3.72zm22.32-3.72h3.72v3.72h-3.72zm-3.72 0h3.72v3.72h-3.72zm-14.88 0h3.72v3.72h-3.72zm-3.72 0h3.72v3.72h-3.72zm22.32-3.72h3.72v3.72h-3.72zm-3.72 0h3.72v3.72h-3.72zm-14.88 0h3.72v3.72h-3.72zm-3.72 0h3.72v3.72h-3.72zm22.32-3.72h3.72v3.72h-3.72zm-3.72 0h3.72v3.72h-3.72zm-14.88 0h3.72v3.72h-3.72zm-3.72 0h3.72v3.72h-3.72zm22.32-3.72h3.72v3.72h-3.72zm-3.72 0h3.72v3.72h-3.72zm-14.88 0h3.72v3.72h-3.72zm-3.72 0h3.72v3.72h-3.72zm22.32-3.72h3.72v3.72h-3.72zm-3.72 0h3.72v3.72h-3.72zm-14.88 0h3.72v3.72h-3.72zm-3.72 0h3.72v3.72h-3.72zm22.32-3.72h3.72v3.72h-3.72zm-3.72 0h3.72v3.72h-3.72zm-14.88 0h3.72v3.72h-3.72zm-3.72 0h3.72v3.72h-3.72zm22.32-3.72h3.72v3.72h-3.72zm-3.72 0h3.72v3.72h-3.72zm-14.88 0h3.72v3.72h-3.72zm-3.72 0h3.72v3.72h-3.72zm18.6-3.72h3.72v3.72h-3.72zm-3.72 0h3.72v3.72h-3.72zm-3.72 0h3.72v3.72h-3.72zm-3.72 0h3.72v3.72h-3.72zm-3.72 0h3.72v3.72h-3.72z" fill="#ce8a51"/><path d="m776.56 44.64h3.72v3.72h-3.72zm-3.72 0h3.72v3.72h-3.72zm-3.72 0h3.72v3.72h-3.72zm-3.72 0h3.72v3.72h-3.72zm-3.72 0h3.72v3.72h-3.72zm0-3.72h3.72v3.72h-3.72zm-3.72 0h3.72v3.72h-3.72zm0-3.72h3.72v3.72h-3.72zm18.6-3.72h3.72v3.72h-3.72zm-18.6 0h3.72v3.72h-3.72zm18.6-3.72h3.72v3.72h-3.72zm-18.6 0h3.72v3.72h-3.72zm18.6-3.72h3.72v3.72h-3.72zm-18.6 0h3.72v3.72h-3.72zm18.6-3.72h3.72v3.72h-3.72zm-18.6 0h3.72v3.72h-3.72zm18.6-3.72h3.72v3.72h-3.72zm-18.6 0h3.72v3.72h-3.72zm18.6-3.72h3.72v3.72h-3.72zm-18.6 0h3.72v3.72h-3.72zm18.6-3.72h3.72v3.72h-3.72zm-18.6 0h3.72v3.72h-3.72zm18.6-3.72h3.72v3.72h-3.72zm-3.72 0h3.72v3.72h-3.72zm-3.72 0h3.72v3.72h-3.72zm-11.16 0h3.72v3.72h-3.72z" opacity=".20784"/></g><g transform="matrix(3.5189 1.0443 -1.0443 3.5189 -1020.5 -172.78)"><path d="m378.52 18.6h3.72v3.72h-3.72zm-3.72 0h3.72v3.72h-3.72zm-3.72 0h3.72v3.72h-3.72zm14.88-14.88h3.72v3.72h-3.72zm-22.32 0h3.72v3.72h-3.72zm18.6-3.72h3.72v3.72h-3.72zm-3.72 0h3.72v3.72h-3.72zm-3.72 0h3.72v3.72h-3.72zm-3.72 0h3.72v3.72h-3.72zm-3.72 0h3.72v3.72h-3.72z" fill="#ed726c"/><path d="m385.96 40.92h3.72v3.72h-3.72zm-3.72 0h3.72v3.72h-3.72zm3.72-3.72h3.72v3.72h-3.72zm-3.72 0h3.72v3.72h-3.72zm3.72-3.72h3.72v3.72h-3.72zm-3.72 0h3.72v3.72h-3.72zm3.72-3.72h3.72v3.72h-3.72zm-3.72 0h3.72v3.72h-3.72zm3.72-3.72h3.72v3.72h-3.72zm-3.72 0h3.72v3.72h-3.72zm3.72-3.72h3.72v3.72h-3.72zm-3.72 0h3.72v3.72h-3.72zm-3.72 0h3.72v3.72h-3.72zm-3.72 0h3.72v3.72h-3.72zm-3.72 0h3.72v3.72h-3.72zm14.88-3.72h3.72v3.72h-3.72zm-3.72 0h3.72v3.72h-3.72zm3.72-3.72h3.72v3.72h-3.72zm-3.72 0h3.72v3.72h-3.72zm3.72-3.72h3.72v3.72h-3.72zm-3.72 0h3.72v3.72h-3.72zm3.72-3.72h3.72v3.72h-3.72zm-3.72 0h3.72v3.72h-3.72zm0-3.72h3.72v3.72h-3.72zm-3.72 0h3.72v3.72h-3.72zm-3.72 0h3.72v3.72h-3.72zm-3.72 0h3.72v3.72h-3.72zm-3.72 0h3.72v3.72h-3.72zm0 37.2h3.72v3.72h-3.72zm-3.72 0h3.72v3.72h-3.72zm3.72-3.72h3.72v3.72h-3.72zm-3.72 0h3.72v3.72h-3.72zm3.72-3.72h3.72v3.72h-3.72zm-3.72 0h3.72v3.72h-3.72zm3.72-3.72h3.72v3.72h-3.72zm-3.72 0h3.72v3.72h-3.72zm3.72-3.72h3.72v3.72h-3.72zm-3.72 0h3.72v3.72h-3.72zm3.72-3.72h3.72v3.72h-3.72zm-3.72 0h3.72v3.72h-3.72zm3.72-3.72h3.72v3.72h-3.72zm-3.72 0h3.72v3.72h-3.72zm3.72-3.72h3.72v3.72h-3.72zm-3.72 0h3.72v3.72h-3.72zm3.72-3.72h3.72v3.72h-3.72zm-3.72 0h3.72v3.72h-3.72zm3.72-3.72h3.72v3.72h-3.72zm-3.72 0h3.72v3.72h-3.72z" fill="#d75856"/><path d="m382.24 44.64h3.72v3.72h-3.72zm-3.72 0h3.72v3.72h-3.72zm-14.88 0h3.72v3.72h-3.72zm-3.72 0h3.72v3.72h-3.72zm18.6-3.72h3.72v3.72h-3.72zm-18.6 0h3.72v3.72h-3.72zm18.6-3.72h3.72v3.72h-3.72zm-18.6 0h3.72v3.72h-3.72zm18.6-3.72h3.72v3.72h-3.72zm-18.6 0h3.72v3.72h-3.72zm18.6-3.72h3.72v3.72h-3.72zm-18.6 0h3.72v3.72h-3.72zm18.6-3.72h3.72v3.72h-3.72zm-3.72 0h3.72v3.72h-3.72zm-3.72 0h3.72v3.72h-3.72zm-11.16 0h3.72v3.72h-3.72zm0-3.72h3.72v3.72h-3.72zm0-3.72h3.72v3.72h-3.72zm18.6-3.72h3.72v3.72h-3.72zm-18.6 0h3.72v3.72h-3.72zm18.6-3.72h3.72v3.72h-3.72zm-18.6 0h3.72v3.72h-3.72zm18.6-3.72h3.72v3.72h-3.72zm-3.72 0h3.72v3.72h-3.72zm-3.72 0h3.72v3.72h-3.72zm-11.16 0h3.72v3.72h-3.72z" opacity=".20784"/></g><g transform="matrix(3.4082 1.363 -1.363 3.4082 -1248.7 -410.39)"><path d="m415.72 26.04h3.72v3.72h-3.72zm-7.44-7.44h3.72v3.72h-3.72zm-3.72 0h3.72v3.72h-3.72zm-3.72 0h3.72v3.72h-3.72zm14.88-14.88h3.72v3.72h-3.72zm-3.72-3.72h3.72v3.72h-3.72zm-3.72 0h3.72v3.72h-3.72zm-3.72 0h3.72v3.72h-3.72zm-3.72 0h3.72v3.72h-3.72zm-3.72 0h3.72v3.72h-3.72zm-3.72 0h3.72v3.72h-3.72z" fill="#ed726c"/><path d="m412 40.92h3.72v3.72h-3.72zm-14.88 0h3.72v3.72h-3.72zm0-3.72h3.72v3.72h-3.72zm0-3.72h3.72v3.72h-3.72zm0-3.72h3.72v3.72h-3.72zm0-3.72h3.72v3.72h-3.72zm0-3.72h3.72v3.72h-3.72zm0-3.72h3.72v3.72h-3.72zm0-3.72h3.72v3.72h-3.72zm0-3.72h3.72v3.72h-3.72zm0-3.72h3.72v3.72h-3.72zm0-3.72h3.72v3.72h-3.72zm-3.72 37.2h3.72v3.72h-3.72zm0-3.72h3.72v3.72h-3.72zm0-3.72h3.72v3.72h-3.72zm0-3.72h3.72v3.72h-3.72zm0-3.72h3.72v3.72h-3.72zm0-3.72h3.72v3.72h-3.72zm0-3.72h3.72v3.72h-3.72zm0-3.72h3.72v3.72h-3.72zm0-3.72h3.72v3.72h-3.72zm0-3.72h3.72v3.72h-3.72zm0-3.72h3.72v3.72h-3.72zm22.32 11.16h3.72v3.72h-3.72zm-3.72 0h3.72v3.72h-3.72zm3.72-3.72h3.72v3.72h-3.72zm-3.72 0h3.72v3.72h-3.72zm3.72-3.72h3.72v3.72h-3.72zm-3.72 0h3.72v3.72h-3.72zm0-3.72h3.72v3.72h-3.72zm-3.72 0h3.72v3.72h-3.72zm-3.72 0h3.72v3.72h-3.72zm-3.72 0h3.72v3.72h-3.72zm11.16 18.6h3.72v3.72h-3.72zm-3.72 0h3.72v3.72h-3.72zm-3.72 0h3.72v3.72h-3.72zm-3.72 0h3.72v3.72h-3.72zm11.16-3.72h3.72v3.72h-3.72zm3.72 18.6h3.72v3.72h-3.72zm-3.72 0h3.72v3.72h-3.72zm0-3.72h3.72v3.72h-3.72zm3.72-3.72h3.72v3.72h-3.72zm-3.72 0h3.72v3.72h-3.72zm0-3.72h3.72v3.72h-3.72zm3.72 7.44h3.72v3.72h-3.72zm-7.44 7.44h3.72v3.72h-3.72zm-3.72 0h3.72v3.72h-3.72zm-3.72 0h3.72v3.72h-3.72zm7.44-3.72h3.72v3.72h-3.72zm-3.72 0h3.72v3.72h-3.72zm-3.72 0h3.72v3.72h-3.72z" fill="#d75856"/><path d="m408.28 44.64h3.72v3.72h-3.72zm-3.72 0h3.72v3.72h-3.72zm-3.72 0h3.72v3.72h-3.72zm-3.72 0h3.72v3.72h-3.72zm-3.72 0h3.72v3.72h-3.72zm-3.72 0h3.72v3.72h-3.72zm0-3.72h3.72v3.72h-3.72zm0-3.72h3.72v3.72h-3.72zm18.6-3.72h3.72v3.72h-3.72zm-18.6 0h3.72v3.72h-3.72zm18.6-3.72h3.72v3.72h-3.72zm-18.6 0h3.72v3.72h-3.72zm18.6-3.72h3.72v3.72h-3.72zm-3.72 0h3.72v3.72h-3.72zm-3.72 0h3.72v3.72h-3.72zm-11.16 0h3.72v3.72h-3.72zm0-3.72h3.72v3.72h-3.72zm0-3.72h3.72v3.72h-3.72zm18.6-3.72h3.72v3.72h-3.72zm-18.6 0h3.72v3.72h-3.72zm18.6-3.72h3.72v3.72h-3.72zm-18.6 0h3.72v3.72h-3.72zm18.6-3.72h3.72v3.72h-3.72zm-3.72 0h3.72v3.72h-3.72zm-3.72 0h3.72v3.72h-3.72zm-11.16 0h3.72v3.72h-3.72zm0-3.72h3.72v3.72h-3.72z" opacity=".20784"/></g><g transform="matrix(3.2887 -1.6303 1.6303 3.2887 -1813.9 1352.3)"><path d="m746.8 18.6h3.72v3.72h-3.72zm-3.72-3.72h3.72v3.72h-3.72zm-3.72-3.72h3.72v3.72h-3.72zm-3.72-3.72h3.72v3.72h-3.72zm18.6-7.44h3.72v3.72h-3.72zm-3.72 0h3.72v3.72h-3.72zm-18.6 0h3.72v3.72h-3.72zm-3.72 0h3.72v3.72h-3.72z" fill="#ed726c"/><path d="m754.24 40.92h3.72v3.72h-3.72zm-3.72 0h3.72v3.72h-3.72zm3.72-3.72h3.72v3.72h-3.72zm-3.72 0h3.72v3.72h-3.72zm3.72-3.72h3.72v3.72h-3.72zm-3.72 0h3.72v3.72h-3.72zm3.72-3.72h3.72v3.72h-3.72zm-3.72 0h3.72v3.72h-3.72zm3.72-3.72h3.72v3.72h-3.72zm-3.72 0h3.72v3.72h-3.72zm3.72-3.72h3.72v3.72h-3.72zm-3.72 0h3.72v3.72h-3.72zm3.72-3.72h3.72v3.72h-3.72zm-3.72 0h3.72v3.72h-3.72zm3.72-3.72h3.72v3.72h-3.72zm-3.72 0h3.72v3.72h-3.72zm3.72-3.72h3.72v3.72h-3.72zm-3.72 0h3.72v3.72h-3.72zm3.72-3.72h3.72v3.72h-3.72zm-3.72 0h3.72v3.72h-3.72zm3.72-3.72h3.72v3.72h-3.72zm-3.72 0h3.72v3.72h-3.72zm-18.6 37.2h3.72v3.72h-3.72zm-3.72 0h3.72v3.72h-3.72zm3.72-3.72h3.72v3.72h-3.72zm-3.72 0h3.72v3.72h-3.72zm3.72-3.72h3.72v3.72h-3.72zm-3.72 0h3.72v3.72h-3.72zm3.72-3.72h3.72v3.72h-3.72zm-3.72 0h3.72v3.72h-3.72zm3.72-3.72h3.72v3.72h-3.72zm-3.72 0h3.72v3.72h-3.72zm3.72-3.72h3.72v3.72h-3.72zm-3.72 0h3.72v3.72h-3.72zm3.72-3.72h3.72v3.72h-3.72zm-3.72 0h3.72v3.72h-3.72zm3.72-3.72h3.72v3.72h-3.72zm-3.72 0h3.72v3.72h-3.72zm3.72-3.72h3.72v3.72h-3.72zm-3.72 0h3.72v3.72h-3.72zm3.72-3.72h3.72v3.72h-3.72zm-3.72 0h3.72v3.72h-3.72zm3.72-3.72h3.72v3.72h-3.72zm-3.72 0h3.72v3.72h-3.72zm18.6 26.04h3.72v3.72h-3.72zm0-3.72h3.72v3.72h-3.72zm-3.72 0h3.72v3.72h-3.72zm3.72-3.72h3.72v3.72h-3.72zm-3.72 0h3.72v3.72h-3.72zm-3.72 0h3.72v3.72h-3.72zm3.72-3.72h3.72v3.72h-3.72zm-3.72 0h3.72v3.72h-3.72zm-3.72 0h3.72v3.72h-3.72zm3.72-3.72h3.72v3.72h-3.72zm-3.72 0h3.72v3.72h-3.72zm0-3.72h3.72v3.72h-3.72z" fill="#d75856"/><path d="m750.52 44.64h3.72v3.72h-3.72zm-3.72 0h3.72v3.72h-3.72zm-18.6 0h3.72v3.72h-3.72zm-3.72 0h3.72v3.72h-3.72zm22.32-3.72h3.72v3.72h-3.72zm-22.32 0h3.72v3.72h-3.72zm22.32-3.72h3.72v3.72h-3.72zm-22.32 0h3.72v3.72h-3.72zm22.32-3.72h3.72v3.72h-3.72zm-3.72 0h3.72v3.72h-3.72zm-18.6 0h3.72v3.72h-3.72zm18.6-3.72h3.72v3.72h-3.72zm-3.72 0h3.72v3.72h-3.72zm-14.88 0h3.72v3.72h-3.72zm14.88-3.72h3.72v3.72h-3.72zm-3.72 0h3.72v3.72h-3.72zm-11.16 0h3.72v3.72h-3.72zm11.16-3.72h3.72v3.72h-3.72zm-11.16 0h3.72v3.72h-3.72zm0-3.72h3.72v3.72h-3.72zm22.32-3.72h3.72v3.72h-3.72zm-22.32 0h3.72v3.72h-3.72zm22.32-3.72h3.72v3.72h-3.72zm-22.32 0h3.72v3.72h-3.72zm22.32-3.72h3.72v3.72h-3.72zm-22.32 0h3.72v3.72h-3.72zm22.32-3.72h3.72v3.72h-3.72zm-22.32 0h3.72v3.72h-3.72z" opacity=".20784"/></g><g transform="matrix(3.5378 -.9785 .9785 3.5378 -2610.9 1075.5)"><path d="m880.72 37.2h3.72v3.72h-3.72zm-3.72-3.72h3.72v3.72h-3.72zm-3.72-3.72h3.72v3.72h-3.72zm-3.72-3.72h3.72v3.72h-3.72zm3.72-7.44h3.72v3.72h-3.72zm-3.72 0h3.72v3.72h-3.72zm-3.72 0h3.72v3.72h-3.72zm14.88-14.88h3.72v3.72h-3.72zm-3.72-3.72h3.72v3.72h-3.72zm-3.72 0h3.72v3.72h-3.72zm-3.72 0h3.72v3.72h-3.72zm-3.72 0h3.72v3.72h-3.72zm-3.72 0h3.72v3.72h-3.72zm-3.72 0h3.72v3.72h-3.72z" fill="#ed726c"/><path d="m880.72 40.92h3.72v3.72h-3.72zm-3.72 0h3.72v3.72h-3.72zm-14.88 0h3.72v3.72h-3.72zm-3.72 0h3.72v3.72h-3.72zm18.6-3.72h3.72v3.72h-3.72zm-3.72 0h3.72v3.72h-3.72zm-11.16 0h3.72v3.72h-3.72zm-3.72 0h3.72v3.72h-3.72zm14.88-3.72h3.72v3.72h-3.72zm-3.72 0h3.72v3.72h-3.72zm-7.44 0h3.72v3.72h-3.72zm-3.72 0h3.72v3.72h-3.72zm11.16-3.72h3.72v3.72h-3.72zm-3.72 0h3.72v3.72h-3.72zm-3.72 0h3.72v3.72h-3.72zm-3.72 0h3.72v3.72h-3.72zm7.44-3.72h3.72v3.72h-3.72zm-3.72 0h3.72v3.72h-3.72zm-3.72 0h3.72v3.72h-3.72zm18.6-3.72h3.72v3.72h-3.72zm-3.72 0h3.72v3.72h-3.72zm-3.72 0h3.72v3.72h-3.72zm-3.72 0h3.72v3.72h-3.72zm-3.72 0h3.72v3.72h-3.72zm-3.72 0h3.72v3.72h-3.72zm22.32-3.72h3.72v3.72h-3.72zm-3.72 0h3.72v3.72h-3.72zm-14.88 0h3.72v3.72h-3.72zm-3.72 0h3.72v3.72h-3.72zm22.32-3.72h3.72v3.72h-3.72zm-3.72 0h3.72v3.72h-3.72zm-14.88 0h3.72v3.72h-3.72zm-3.72 0h3.72v3.72h-3.72zm22.32-3.72h3.72v3.72h-3.72zm-3.72 0h3.72v3.72h-3.72zm-14.88 0h3.72v3.72h-3.72zm-3.72 0h3.72v3.72h-3.72zm22.32-3.72h3.72v3.72h-3.72zm-3.72 0h3.72v3.72h-3.72zm-14.88 0h3.72v3.72h-3.72zm-3.72 0h3.72v3.72h-3.72zm18.6-3.72h3.72v3.72h-3.72zm-3.72 0h3.72v3.72h-3.72zm-3.72 0h3.72v3.72h-3.72zm-3.72 0h3.72v3.72h-3.72zm-3.72 0h3.72v3.72h-3.72zm-3.72 0h3.72v3.72h-3.72z" fill="#d75856"/><path d="m877 44.64h3.72v3.72h-3.72zm-3.72 0h3.72v3.72h-3.72zm-14.88 0h3.72v3.72h-3.72zm-3.72 0h3.72v3.72h-3.72zm18.6-3.72h3.72v3.72h-3.72zm-3.72 0h3.72v3.72h-3.72zm-14.88 0h3.72v3.72h-3.72zm14.88-3.72h3.72v3.72h-3.72zm-3.72 0h3.72v3.72h-3.72zm-11.16 0h3.72v3.72h-3.72zm11.16-3.72h3.72v3.72h-3.72zm-11.16 0h3.72v3.72h-3.72zm0-3.72h3.72v3.72h-3.72zm18.6-3.72h3.72v3.72h-3.72zm-18.6 0h3.72v3.72h-3.72zm0-3.72h3.72v3.72h-3.72zm0-3.72h3.72v3.72h-3.72zm18.6-3.72h3.72v3.72h-3.72zm-18.6 0h3.72v3.72h-3.72zm18.6-3.72h3.72v3.72h-3.72zm-18.6 0h3.72v3.72h-3.72zm18.6-3.72h3.72v3.72h-3.72zm-3.72 0h3.72v3.72h-3.72zm-3.72 0h3.72v3.72h-3.72zm-11.16 0h3.72v3.72h-3.72zm0-3.72h3.72v3.72h-3.72z" opacity=".20784"/></g><g transform="matrix(1.9546 0 0 1.9546 -1399.7 91.061)"><path d="m899.32 37.2h3.72v3.72h-3.72zm-3.72 0h3.72v3.72h-3.72zm-3.72 0h3.72v3.72h-3.72zm-3.72 0h3.72v3.72h-3.72zm18.6-14.88h3.72v3.72h-3.72zm-3.72-3.72h3.72v3.72h-3.72zm-3.72 0h3.72v3.72h-3.72zm-3.72 0h3.72v3.72h-3.72zm-7.44-14.88h3.72v3.72h-3.72zm18.6-3.72h3.72v3.72h-3.72zm-3.72 0h3.72v3.72h-3.72zm-3.72 0h3.72v3.72h-3.72zm-3.72 0h3.72v3.72h-3.72zm-3.72 0h3.72v3.72h-3.72z" fill="#e4a26a"/><path d="m903.04 40.92h3.72v3.72h-3.72zm-3.72 0h3.72v3.72h-3.72zm-3.72 0h3.72v3.72h-3.72zm-3.72 0h3.72v3.72h-3.72zm-3.72 0h3.72v3.72h-3.72zm18.6-3.72h3.72v3.72h-3.72zm-3.72 0h3.72v3.72h-3.72zm3.72-3.72h3.72v3.72h-3.72zm-3.72 0h3.72v3.72h-3.72zm3.72-3.72h3.72v3.72h-3.72zm-3.72 0h3.72v3.72h-3.72zm3.72-3.72h3.72v3.72h-3.72zm-3.72 0h3.72v3.72h-3.72zm0-3.72h3.72v3.72h-3.72zm-3.72 0h3.72v3.72h-3.72zm-3.72 0h3.72v3.72h-3.72zm-3.72 0h3.72v3.72h-3.72zm0-3.72h3.72v3.72h-3.72zm-3.72 0h3.72v3.72h-3.72zm3.72-3.72h3.72v3.72h-3.72zm-3.72 0h3.72v3.72h-3.72zm3.72-3.72h3.72v3.72h-3.72zm-3.72 0h3.72v3.72h-3.72zm3.72-3.72h3.72v3.72h-3.72zm-3.72 0h3.72v3.72h-3.72zm18.6-3.72h3.72v3.72h-3.72zm-3.72 0h3.72v3.72h-3.72zm-3.72 0h3.72v3.72h-3.72zm-3.72 0h3.72v3.72h-3.72zm-3.72 0h3.72v3.72h-3.72z" fill="#ce8a51"/><path d="m899.32 44.64h3.72v3.72h-3.72zm-3.72 0h3.72v3.72h-3.72zm-3.72 0h3.72v3.72h-3.72zm-3.72 0h3.72v3.72h-3.72zm-3.72 0h3.72v3.72h-3.72zm0-3.72h3.72v3.72h-3.72zm14.88-7.44h3.72v3.72h-3.72zm0-3.72h3.72v3.72h-3.72zm0-3.72h3.72v3.72h-3.72zm-3.72 0h3.72v3.72h-3.72zm-3.72 0h3.72v3.72h-3.72zm-3.72 0h3.72v3.72h-3.72zm0-3.72h3.72v3.72h-3.72zm-3.72 0h3.72v3.72h-3.72zm0-3.72h3.72v3.72h-3.72zm0-3.72h3.72v3.72h-3.72zm0-3.72h3.72v3.72h-3.72zm18.6-3.72h3.72v3.72h-3.72zm-3.72 0h3.72v3.72h-3.72zm-3.72 0h3.72v3.72h-3.72zm-11.16 0h3.72v3.72h-3.72z" opacity=".20784"/></g><g transform="translate(312.67)"><path d="m378.52 18.6h3.72v3.72h-3.72zm-3.72 0h3.72v3.72h-3.72zm-3.72 0h3.72v3.72h-3.72zm14.88-14.88h3.72v3.72h-3.72zm-22.32 0h3.72v3.72h-3.72zm18.6-3.72h3.72v3.72h-3.72zm-3.72 0h3.72v3.72h-3.72zm-3.72 0h3.72v3.72h-3.72zm-3.72 0h3.72v3.72h-3.72zm-3.72 0h3.72v3.72h-3.72z" fill="#a4a4a4"/><path d="m385.96 40.92h3.72v3.72h-3.72zm-3.72 0h3.72v3.72h-3.72zm3.72-3.72h3.72v3.72h-3.72zm-3.72 0h3.72v3.72h-3.72zm3.72-3.72h3.72v3.72h-3.72zm-3.72 0h3.72v3.72h-3.72zm3.72-3.72h3.72v3.72h-3.72zm-3.72 0h3.72v3.72h-3.72zm3.72-3.72h3.72v3.72h-3.72zm-3.72 0h3.72v3.72h-3.72zm3.72-3.72h3.72v3.72h-3.72zm-3.72 0h3.72v3.72h-3.72zm-3.72 0h3.72v3.72h-3.72zm-3.72 0h3.72v3.72h-3.72zm-3.72 0h3.72v3.72h-3.72zm14.88-3.72h3.72v3.72h-3.72zm-3.72 0h3.72v3.72h-3.72zm3.72-3.72h3.72v3.72h-3.72zm-3.72 0h3.72v3.72h-3.72zm3.72-3.72h3.72v3.72h-3.72zm-3.72 0h3.72v3.72h-3.72zm3.72-3.72h3.72v3.72h-3.72zm-3.72 0h3.72v3.72h-3.72zm0-3.72h3.72v3.72h-3.72zm-3.72 0h3.72v3.72h-3.72zm-3.72 0h3.72v3.72h-3.72zm-3.72 0h3.72v3.72h-3.72zm-3.72 0h3.72v3.72h-3.72zm0 37.2h3.72v3.72h-3.72zm-3.72 0h3.72v3.72h-3.72zm3.72-3.72h3.72v3.72h-3.72zm-3.72 0h3.72v3.72h-3.72zm3.72-3.72h3.72v3.72h-3.72zm-3.72 0h3.72v3.72h-3.72zm3.72-3.72h3.72v3.72h-3.72zm-3.72 0h3.72v3.72h-3.72zm3.72-3.72h3.72v3.72h-3.72zm-3.72 0h3.72v3.72h-3.72zm3.72-3.72h3.72v3.72h-3.72zm-3.72 0h3.72v3.72h-3.72zm3.72-3.72h3.72v3.72h-3.72zm-3.72 0h3.72v3.72h-3.72zm3.72-3.72h3.72v3.72h-3.72zm-3.72 0h3.72v3.72h-3.72zm3.72-3.72h3.72v3.72h-3.72zm-3.72 0h3.72v3.72h-3.72zm3.72-3.72h3.72v3.72h-3.72zm-3.72 0h3.72v3.72h-3.72z" fill="#8a8a8a"/><path d="m382.24 44.64h3.72v3.72h-3.72zm-3.72 0h3.72v3.72h-3.72zm-14.88 0h3.72v3.72h-3.72zm-3.72 0h3.72v3.72h-3.72zm18.6-3.72h3.72v3.72h-3.72zm-18.6 0h3.72v3.72h-3.72zm18.6-3.72h3.72v3.72h-3.72zm-18.6 0h3.72v3.72h-3.72zm18.6-3.72h3.72v3.72h-3.72zm-18.6 0h3.72v3.72h-3.72zm18.6-3.72h3.72v3.72h-3.72zm-18.6 0h3.72v3.72h-3.72zm18.6-3.72h3.72v3.72h-3.72zm-3.72 0h3.72v3.72h-3.72zm-3.72 0h3.72v3.72h-3.72zm-11.16 0h3.72v3.72h-3.72zm0-3.72h3.72v3.72h-3.72zm0-3.72h3.72v3.72h-3.72zm18.6-3.72h3.72v3.72h-3.72zm-18.6 0h3.72v3.72h-3.72zm18.6-3.72h3.72v3.72h-3.72zm-18.6 0h3.72v3.72h-3.72zm18.6-3.72h3.72v3.72h-3.72zm-3.72 0h3.72v3.72h-3.72zm-3.72 0h3.72v3.72h-3.72zm-11.16 0h3.72v3.72h-3.72z" opacity=".20784"/></g><g transform="translate(210.77)"><path d="m378.52 18.6h3.72v3.72h-3.72zm-3.72 0h3.72v3.72h-3.72zm-3.72 0h3.72v3.72h-3.72zm14.88-14.88h3.72v3.72h-3.72zm-22.32 0h3.72v3.72h-3.72zm18.6-3.72h3.72v3.72h-3.72zm-3.72 0h3.72v3.72h-3.72zm-3.72 0h3.72v3.72h-3.72zm-3.72 0h3.72v3.72h-3.72zm-3.72 0h3.72v3.72h-3.72z" fill="#a4a4a4"/><path d="m385.96 40.92h3.72v3.72h-3.72zm-3.72 0h3.72v3.72h-3.72zm3.72-3.72h3.72v3.72h-3.72zm-3.72 0h3.72v3.72h-3.72zm3.72-3.72h3.72v3.72h-3.72zm-3.72 0h3.72v3.72h-3.72zm3.72-3.72h3.72v3.72h-3.72zm-3.72 0h3.72v3.72h-3.72zm3.72-3.72h3.72v3.72h-3.72zm-3.72 0h3.72v3.72h-3.72zm3.72-3.72h3.72v3.72h-3.72zm-3.72 0h3.72v3.72h-3.72zm-3.72 0h3.72v3.72h-3.72zm-3.72 0h3.72v3.72h-3.72zm-3.72 0h3.72v3.72h-3.72zm14.88-3.72h3.72v3.72h-3.72zm-3.72 0h3.72v3.72h-3.72zm3.72-3.72h3.72v3.72h-3.72zm-3.72 0h3.72v3.72h-3.72zm3.72-3.72h3.72v3.72h-3.72zm-3.72 0h3.72v3.72h-3.72zm3.72-3.72h3.72v3.72h-3.72zm-3.72 0h3.72v3.72h-3.72zm0-3.72h3.72v3.72h-3.72zm-3.72 0h3.72v3.72h-3.72zm-3.72 0h3.72v3.72h-3.72zm-3.72 0h3.72v3.72h-3.72zm-3.72 0h3.72v3.72h-3.72zm0 37.2h3.72v3.72h-3.72zm-3.72 0h3.72v3.72h-3.72zm3.72-3.72h3.72v3.72h-3.72zm-3.72 0h3.72v3.72h-3.72zm3.72-3.72h3.72v3.72h-3.72zm-3.72 0h3.72v3.72h-3.72zm3.72-3.72h3.72v3.72h-3.72zm-3.72 0h3.72v3.72h-3.72zm3.72-3.72h3.72v3.72h-3.72zm-3.72 0h3.72v3.72h-3.72zm3.72-3.72h3.72v3.72h-3.72zm-3.72 0h3.72v3.72h-3.72zm3.72-3.72h3.72v3.72h-3.72zm-3.72 0h3.72v3.72h-3.72zm3.72-3.72h3.72v3.72h-3.72zm-3.72 0h3.72v3.72h-3.72zm3.72-3.72h3.72v3.72h-3.72zm-3.72 0h3.72v3.72h-3.72zm3.72-3.72h3.72v3.72h-3.72zm-3.72 0h3.72v3.72h-3.72z" fill="#8a8a8a"/><path d="m382.24 44.64h3.72v3.72h-3.72zm-3.72 0h3.72v3.72h-3.72zm-14.88 0h3.72v3.72h-3.72zm-3.72 0h3.72v3.72h-3.72zm18.6-3.72h3.72v3.72h-3.72zm-18.6 0h3.72v3.72h-3.72zm18.6-3.72h3.72v3.72h-3.72zm-18.6 0h3.72v3.72h-3.72zm18.6-3.72h3.72v3.72h-3.72zm-18.6 0h3.72v3.72h-3.72zm18.6-3.72h3.72v3.72h-3.72zm-18.6 0h3.72v3.72h-3.72zm18.6-3.72h3.72v3.72h-3.72zm-3.72 0h3.72v3.72h-3.72zm-3.72 0h3.72v3.72h-3.72zm-11.16 0h3.72v3.72h-3.72zm0-3.72h3.72v3.72h-3.72zm0-3.72h3.72v3.72h-3.72zm18.6-3.72h3.72v3.72h-3.72zm-18.6 0h3.72v3.72h-3.72zm18.6-3.72h3.72v3.72h-3.72zm-18.6 0h3.72v3.72h-3.72zm18.6-3.72h3.72v3.72h-3.72zm-3.72 0h3.72v3.72h-3.72zm-3.72 0h3.72v3.72h-3.72zm-11.16 0h3.72v3.72h-3.72z" opacity=".20784"/></g><g transform="translate(122.24)"><path d="m441.76 37.2h3.72v3.72h-3.72zm-3.72 0h3.72v3.72h-3.72zm-3.72 0h3.72v3.72h-3.72zm-3.72-3.72h3.72v3.72h-3.72zm-7.44-29.76h3.72v3.72h-3.72zm18.6-3.72h3.72v3.72h-3.72zm-3.72 0h3.72v3.72h-3.72zm-3.72 0h3.72v3.72h-3.72zm-3.72 0h3.72v3.72h-3.72zm-3.72 0h3.72v3.72h-3.72z" fill="#a4a4a4"/><path d="m441.76 40.92h3.72v3.72h-3.72zm-3.72 0h3.72v3.72h-3.72zm-3.72 0h3.72v3.72h-3.72zm-3.72 0h3.72v3.72h-3.72zm-3.72 0h3.72v3.72h-3.72zm3.72-3.72h3.72v3.72h-3.72zm-3.72 0h3.72v3.72h-3.72zm-3.72 0h3.72v3.72h-3.72zm3.72-3.72h3.72v3.72h-3.72zm-3.72 0h3.72v3.72h-3.72zm3.72-3.72h3.72v3.72h-3.72zm-3.72 0h3.72v3.72h-3.72zm3.72-3.72h3.72v3.72h-3.72zm-3.72 0h3.72v3.72h-3.72zm3.72-3.72h3.72v3.72h-3.72zm-3.72 0h3.72v3.72h-3.72zm3.72-3.72h3.72v3.72h-3.72zm-3.72 0h3.72v3.72h-3.72zm3.72-3.72h3.72v3.72h-3.72zm-3.72 0h3.72v3.72h-3.72zm3.72-3.72h3.72v3.72h-3.72zm-3.72 0h3.72v3.72h-3.72zm7.44-3.72h3.72v3.72h-3.72zm-3.72 0h3.72v3.72h-3.72zm-3.72 0h3.72v3.72h-3.72zm18.6-3.72h3.72v3.72h-3.72zm-3.72 0h3.72v3.72h-3.72zm-3.72 0h3.72v3.72h-3.72zm-3.72 0h3.72v3.72h-3.72zm-3.72 0h3.72v3.72h-3.72z" fill="#8a8a8a"/><path d="m438.04 44.64h3.72v3.72h-3.72zm-3.72 0h3.72v3.72h-3.72zm-3.72 0h3.72v3.72h-3.72zm-3.72 0h3.72v3.72h-3.72zm-3.72 0h3.72v3.72h-3.72zm0-3.72h3.72v3.72h-3.72zm-3.72 0h3.72v3.72h-3.72zm0-3.72h3.72v3.72h-3.72zm0-3.72h3.72v3.72h-3.72zm0-3.72h3.72v3.72h-3.72zm0-3.72h3.72v3.72h-3.72zm0-3.72h3.72v3.72h-3.72zm0-3.72h3.72v3.72h-3.72zm0-3.72h3.72v3.72h-3.72zm0-3.72h3.72v3.72h-3.72zm18.6-3.72h3.72v3.72h-3.72zm-3.72 0h3.72v3.72h-3.72zm-14.88 0h3.72v3.72h-3.72z" opacity=".20784"/></g><g transform="translate(317.85)"><path d="m464.08 37.2h3.72v3.72h-3.72zm-3.72 0h3.72v3.72h-3.72zm-3.72 0h3.72v3.72h-3.72zm14.88-33.48h3.72v3.72h-3.72zm-3.72-3.72h3.72v3.72h-3.72zm-3.72 0h3.72v3.72h-3.72zm-3.72 0h3.72v3.72h-3.72zm-3.72 0h3.72v3.72h-3.72zm-3.72 0h3.72v3.72h-3.72zm-3.72 0h3.72v3.72h-3.72z" fill="#a4a4a4"/><path d="m467.8 40.92h3.72v3.72h-3.72zm-3.72 0h3.72v3.72h-3.72zm-3.72 0h3.72v3.72h-3.72zm-3.72 0h3.72v3.72h-3.72zm-3.72 0h3.72v3.72h-3.72zm-3.72 0h3.72v3.72h-3.72zm22.32-3.72h3.72v3.72h-3.72zm-3.72 0h3.72v3.72h-3.72zm-14.88 0h3.72v3.72h-3.72zm-3.72 0h3.72v3.72h-3.72zm22.32-3.72h3.72v3.72h-3.72zm-3.72 0h3.72v3.72h-3.72zm-14.88 0h3.72v3.72h-3.72zm-3.72 0h3.72v3.72h-3.72zm22.32-3.72h3.72v3.72h-3.72zm-3.72 0h3.72v3.72h-3.72zm-14.88 0h3.72v3.72h-3.72zm-3.72 0h3.72v3.72h-3.72zm22.32-3.72h3.72v3.72h-3.72zm-3.72 0h3.72v3.72h-3.72zm-14.88 0h3.72v3.72h-3.72zm-3.72 0h3.72v3.72h-3.72zm22.32-3.72h3.72v3.72h-3.72zm-3.72 0h3.72v3.72h-3.72zm-14.88 0h3.72v3.72h-3.72zm-3.72 0h3.72v3.72h-3.72zm22.32-3.72h3.72v3.72h-3.72zm-3.72 0h3.72v3.72h-3.72zm-14.88 0h3.72v3.72h-3.72zm-3.72 0h3.72v3.72h-3.72zm22.32-3.72h3.72v3.72h-3.72zm-3.72 0h3.72v3.72h-3.72zm-14.88 0h3.72v3.72h-3.72zm-3.72 0h3.72v3.72h-3.72zm22.32-3.72h3.72v3.72h-3.72zm-3.72 0h3.72v3.72h-3.72zm-14.88 0h3.72v3.72h-3.72zm-3.72 0h3.72v3.72h-3.72zm22.32-3.72h3.72v3.72h-3.72zm-3.72 0h3.72v3.72h-3.72zm-14.88 0h3.72v3.72h-3.72zm-3.72 0h3.72v3.72h-3.72zm3.72-3.72h3.72v3.72h-3.72zm-3.72 0h3.72v3.72h-3.72zm18.6 0h3.72v3.72h-3.72zm-3.72 0h3.72v3.72h-3.72zm-3.72 0h3.72v3.72h-3.72zm-3.72 0h3.72v3.72h-3.72z" fill="#8a8a8a"/><path d="m464.08 44.64h3.72v3.72h-3.72zm-3.72 0h3.72v3.72h-3.72zm-3.72 0h3.72v3.72h-3.72zm-3.72 0h3.72v3.72h-3.72zm-3.72 0h3.72v3.72h-3.72zm-3.72 0h3.72v3.72h-3.72zm0-3.72h3.72v3.72h-3.72zm0-3.72h3.72v3.72h-3.72zm18.6-3.72h3.72v3.72h-3.72zm-18.6 0h3.72v3.72h-3.72zm18.6-3.72h3.72v3.72h-3.72zm-18.6 0h3.72v3.72h-3.72zm18.6-3.72h3.72v3.72h-3.72zm-18.6 0h3.72v3.72h-3.72zm18.6-3.72h3.72v3.72h-3.72zm-18.6 0h3.72v3.72h-3.72zm18.6-3.72h3.72v3.72h-3.72zm-18.6 0h3.72v3.72h-3.72zm18.6-3.72h3.72v3.72h-3.72zm-18.6 0h3.72v3.72h-3.72zm18.6-3.72h3.72v3.72h-3.72zm-18.6 0h3.72v3.72h-3.72zm18.6-3.72h3.72v3.72h-3.72zm-3.72 0h3.72v3.72h-3.72zm-3.72 0h3.72v3.72h-3.72zm-11.16 0h3.72v3.72h-3.72zm0-3.72h3.72v3.72h-3.72z" opacity=".20784"/></g><g transform="translate(-13.138)"><path d="m497.56 37.2h3.72v3.72h-3.72zm-3.72 0h3.72v3.72h-3.72zm-3.72 0h3.72v3.72h-3.72zm-3.72 0h3.72v3.72h-3.72zm7.44-18.6h3.72v3.72h-3.72zm-3.72 0h3.72v3.72h-3.72zm-3.72 0h3.72v3.72h-3.72zm11.16-18.6h3.72v3.72h-3.72zm-3.72 0h3.72v3.72h-3.72zm-3.72 0h3.72v3.72h-3.72zm-3.72 0h3.72v3.72h-3.72zm-3.72 0h3.72v3.72h-3.72zm-3.72 0h3.72v3.72h-3.72z" fill="#a4a4a4"/><path d="m497.56 40.92h3.72v3.72h-3.72zm-3.72 0h3.72v3.72h-3.72zm-3.72 0h3.72v3.72h-3.72zm-3.72 0h3.72v3.72h-3.72zm-3.72 0h3.72v3.72h-3.72zm-3.72 0h3.72v3.72h-3.72zm3.72-3.72h3.72v3.72h-3.72zm-3.72 0h3.72v3.72h-3.72zm3.72-3.72h3.72v3.72h-3.72zm-3.72 0h3.72v3.72h-3.72zm3.72-3.72h3.72v3.72h-3.72zm-3.72 0h3.72v3.72h-3.72zm3.72-3.72h3.72v3.72h-3.72zm-3.72 0h3.72v3.72h-3.72zm3.72-3.72h3.72v3.72h-3.72zm-3.72 0h3.72v3.72h-3.72zm3.72-3.72h3.72v3.72h-3.72zm-3.72 0h3.72v3.72h-3.72zm3.72-3.72h3.72v3.72h-3.72zm-3.72 0h3.72v3.72h-3.72zm3.72-3.72h3.72v3.72h-3.72zm-3.72 0h3.72v3.72h-3.72zm3.72-3.72h3.72v3.72h-3.72zm-3.72 0h3.72v3.72h-3.72zm3.72-3.72h3.72v3.72h-3.72zm-3.72 0h3.72v3.72h-3.72zm14.88 18.6h3.72v3.72h-3.72zm-3.72 0h3.72v3.72h-3.72zm-3.72 0h3.72v3.72h-3.72zm11.16-18.6h3.72v3.72h-3.72zm-3.72 0h3.72v3.72h-3.72zm-3.72 0h3.72v3.72h-3.72zm-3.72 0h3.72v3.72h-3.72z" fill="#8a8a8a"/><path d="m493.84 44.64h3.72v3.72h-3.72zm-3.72 0h3.72v3.72h-3.72zm-3.72 0h3.72v3.72h-3.72zm-3.72 0h3.72v3.72h-3.72zm-3.72 0h3.72v3.72h-3.72zm-3.72 0h3.72v3.72h-3.72zm0-3.72h3.72v3.72h-3.72zm0-3.72h3.72v3.72h-3.72zm0-3.72h3.72v3.72h-3.72zm0-3.72h3.72v3.72h-3.72zm14.88-3.72h3.72v3.72h-3.72zm-3.72 0h3.72v3.72h-3.72zm-11.16 0h3.72v3.72h-3.72zm0-3.72h3.72v3.72h-3.72zm0-3.72h3.72v3.72h-3.72zm0-3.72h3.72v3.72h-3.72zm0-3.72h3.72v3.72h-3.72zm18.6-3.72h3.72v3.72h-3.72zm-3.72 0h3.72v3.72h-3.72zm-3.72 0h3.72v3.72h-3.72zm-11.16 0h3.72v3.72h-3.72zm0-3.72h3.72v3.72h-3.72z" opacity=".20784"/></g><g transform="translate(259.08)"><path d="m497.56 37.2h3.72v3.72h-3.72zm-3.72 0h3.72v3.72h-3.72zm-3.72 0h3.72v3.72h-3.72zm-3.72 0h3.72v3.72h-3.72zm7.44-18.6h3.72v3.72h-3.72zm-3.72 0h3.72v3.72h-3.72zm-3.72 0h3.72v3.72h-3.72zm11.16-18.6h3.72v3.72h-3.72zm-3.72 0h3.72v3.72h-3.72zm-3.72 0h3.72v3.72h-3.72zm-3.72 0h3.72v3.72h-3.72zm-3.72 0h3.72v3.72h-3.72zm-3.72 0h3.72v3.72h-3.72z" fill="#a4a4a4"/><path d="m497.56 40.92h3.72v3.72h-3.72zm-3.72 0h3.72v3.72h-3.72zm-3.72 0h3.72v3.72h-3.72zm-3.72 0h3.72v3.72h-3.72zm-3.72 0h3.72v3.72h-3.72zm-3.72 0h3.72v3.72h-3.72zm3.72-3.72h3.72v3.72h-3.72zm-3.72 0h3.72v3.72h-3.72zm3.72-3.72h3.72v3.72h-3.72zm-3.72 0h3.72v3.72h-3.72zm3.72-3.72h3.72v3.72h-3.72zm-3.72 0h3.72v3.72h-3.72zm3.72-3.72h3.72v3.72h-3.72zm-3.72 0h3.72v3.72h-3.72zm3.72-3.72h3.72v3.72h-3.72zm-3.72 0h3.72v3.72h-3.72zm3.72-3.72h3.72v3.72h-3.72zm-3.72 0h3.72v3.72h-3.72zm3.72-3.72h3.72v3.72h-3.72zm-3.72 0h3.72v3.72h-3.72zm3.72-3.72h3.72v3.72h-3.72zm-3.72 0h3.72v3.72h-3.72zm3.72-3.72h3.72v3.72h-3.72zm-3.72 0h3.72v3.72h-3.72zm3.72-3.72h3.72v3.72h-3.72zm-3.72 0h3.72v3.72h-3.72zm14.88 18.6h3.72v3.72h-3.72zm-3.72 0h3.72v3.72h-3.72zm-3.72 0h3.72v3.72h-3.72zm11.16-18.6h3.72v3.72h-3.72zm-3.72 0h3.72v3.72h-3.72zm-3.72 0h3.72v3.72h-3.72zm-3.72 0h3.72v3.72h-3.72z" fill="#8a8a8a"/><path d="m493.84 44.64h3.72v3.72h-3.72zm-3.72 0h3.72v3.72h-3.72zm-3.72 0h3.72v3.72h-3.72zm-3.72 0h3.72v3.72h-3.72zm-3.72 0h3.72v3.72h-3.72zm-3.72 0h3.72v3.72h-3.72zm0-3.72h3.72v3.72h-3.72zm0-3.72h3.72v3.72h-3.72zm0-3.72h3.72v3.72h-3.72zm0-3.72h3.72v3.72h-3.72zm14.88-3.72h3.72v3.72h-3.72zm-3.72 0h3.72v3.72h-3.72zm-11.16 0h3.72v3.72h-3.72zm0-3.72h3.72v3.72h-3.72zm0-3.72h3.72v3.72h-3.72zm0-3.72h3.72v3.72h-3.72zm0-3.72h3.72v3.72h-3.72zm18.6-3.72h3.72v3.72h-3.72zm-3.72 0h3.72v3.72h-3.72zm-3.72 0h3.72v3.72h-3.72zm-11.16 0h3.72v3.72h-3.72zm0-3.72h3.72v3.72h-3.72z" opacity=".20784"/></g><g transform="translate(-95.731)"><path d="m594.28 0h3.72v3.72h-3.72zm-3.72 0h3.72v3.72h-3.72z" fill="#a4a4a4"/><path d="m594.28 40.92h3.72v3.72h-3.72zm-3.72 0h3.72v3.72h-3.72zm3.72-3.72h3.72v3.72h-3.72zm-3.72 0h3.72v3.72h-3.72zm3.72-3.72h3.72v3.72h-3.72zm-3.72 0h3.72v3.72h-3.72zm3.72-3.72h3.72v3.72h-3.72zm-3.72 0h3.72v3.72h-3.72zm3.72-3.72h3.72v3.72h-3.72zm-3.72 0h3.72v3.72h-3.72zm3.72-3.72h3.72v3.72h-3.72zm-3.72 0h3.72v3.72h-3.72zm3.72-3.72h3.72v3.72h-3.72zm-3.72 0h3.72v3.72h-3.72zm3.72-3.72h3.72v3.72h-3.72zm-3.72 0h3.72v3.72h-3.72zm3.72-3.72h3.72v3.72h-3.72zm-3.72 0h3.72v3.72h-3.72zm3.72-3.72h3.72v3.72h-3.72zm-3.72 0h3.72v3.72h-3.72zm3.72-3.72h3.72v3.72h-3.72zm-3.72 0h3.72v3.72h-3.72z" fill="#8a8a8a"/><path d="m590.56 44.64h3.72v3.72h-3.72zm-3.72 0h3.72v3.72h-3.72zm0-3.72h3.72v3.72h-3.72zm0-3.72h3.72v3.72h-3.72zm0-3.72h3.72v3.72h-3.72zm0-3.72h3.72v3.72h-3.72zm0-3.72h3.72v3.72h-3.72zm0-3.72h3.72v3.72h-3.72zm0-3.72h3.72v3.72h-3.72zm0-3.72h3.72v3.72h-3.72zm0-3.72h3.72v3.72h-3.72zm0-3.72h3.72v3.72h-3.72zm0-3.72h3.72v3.72h-3.72z" opacity=".20784"/></g><g transform="translate(-219.24)"><path d="m746.8 18.6h3.72v3.72h-3.72zm-3.72-3.72h3.72v3.72h-3.72zm-3.72-3.72h3.72v3.72h-3.72zm-3.72-3.72h3.72v3.72h-3.72zm18.6-7.44h3.72v3.72h-3.72zm-3.72 0h3.72v3.72h-3.72zm-18.6 0h3.72v3.72h-3.72zm-3.72 0h3.72v3.72h-3.72z" fill="#a4a4a4"/><path d="m754.24 40.92h3.72v3.72h-3.72zm-3.72 0h3.72v3.72h-3.72zm3.72-3.72h3.72v3.72h-3.72zm-3.72 0h3.72v3.72h-3.72zm3.72-3.72h3.72v3.72h-3.72zm-3.72 0h3.72v3.72h-3.72zm3.72-3.72h3.72v3.72h-3.72zm-3.72 0h3.72v3.72h-3.72zm3.72-3.72h3.72v3.72h-3.72zm-3.72 0h3.72v3.72h-3.72zm3.72-3.72h3.72v3.72h-3.72zm-3.72 0h3.72v3.72h-3.72zm3.72-3.72h3.72v3.72h-3.72zm-3.72 0h3.72v3.72h-3.72zm3.72-3.72h3.72v3.72h-3.72zm-3.72 0h3.72v3.72h-3.72zm3.72-3.72h3.72v3.72h-3.72zm-3.72 0h3.72v3.72h-3.72zm3.72-3.72h3.72v3.72h-3.72zm-3.72 0h3.72v3.72h-3.72zm3.72-3.72h3.72v3.72h-3.72zm-3.72 0h3.72v3.72h-3.72zm-18.6 37.2h3.72v3.72h-3.72zm-3.72 0h3.72v3.72h-3.72zm3.72-3.72h3.72v3.72h-3.72zm-3.72 0h3.72v3.72h-3.72zm3.72-3.72h3.72v3.72h-3.72zm-3.72 0h3.72v3.72h-3.72zm3.72-3.72h3.72v3.72h-3.72zm-3.72 0h3.72v3.72h-3.72zm3.72-3.72h3.72v3.72h-3.72zm-3.72 0h3.72v3.72h-3.72zm3.72-3.72h3.72v3.72h-3.72zm-3.72 0h3.72v3.72h-3.72zm3.72-3.72h3.72v3.72h-3.72zm-3.72 0h3.72v3.72h-3.72zm3.72-3.72h3.72v3.72h-3.72zm-3.72 0h3.72v3.72h-3.72zm3.72-3.72h3.72v3.72h-3.72zm-3.72 0h3.72v3.72h-3.72zm3.72-3.72h3.72v3.72h-3.72zm-3.72 0h3.72v3.72h-3.72zm3.72-3.72h3.72v3.72h-3.72zm-3.72 0h3.72v3.72h-3.72zm18.6 26.04h3.72v3.72h-3.72zm0-3.72h3.72v3.72h-3.72zm-3.72 0h3.72v3.72h-3.72zm3.72-3.72h3.72v3.72h-3.72zm-3.72 0h3.72v3.72h-3.72zm-3.72 0h3.72v3.72h-3.72zm3.72-3.72h3.72v3.72h-3.72zm-3.72 0h3.72v3.72h-3.72zm-3.72 0h3.72v3.72h-3.72zm3.72-3.72h3.72v3.72h-3.72zm-3.72 0h3.72v3.72h-3.72zm0-3.72h3.72v3.72h-3.72z" fill="#8a8a8a"/><path d="m750.52 44.64h3.72v3.72h-3.72zm-3.72 0h3.72v3.72h-3.72zm-18.6 0h3.72v3.72h-3.72zm-3.72 0h3.72v3.72h-3.72zm22.32-3.72h3.72v3.72h-3.72zm-22.32 0h3.72v3.72h-3.72zm22.32-3.72h3.72v3.72h-3.72zm-22.32 0h3.72v3.72h-3.72zm22.32-3.72h3.72v3.72h-3.72zm-3.72 0h3.72v3.72h-3.72zm-18.6 0h3.72v3.72h-3.72zm18.6-3.72h3.72v3.72h-3.72zm-3.72 0h3.72v3.72h-3.72zm-14.88 0h3.72v3.72h-3.72zm14.88-3.72h3.72v3.72h-3.72zm-3.72 0h3.72v3.72h-3.72zm-11.16 0h3.72v3.72h-3.72zm11.16-3.72h3.72v3.72h-3.72zm-11.16 0h3.72v3.72h-3.72zm0-3.72h3.72v3.72h-3.72zm22.32-3.72h3.72v3.72h-3.72zm-22.32 0h3.72v3.72h-3.72zm22.32-3.72h3.72v3.72h-3.72zm-22.32 0h3.72v3.72h-3.72zm22.32-3.72h3.72v3.72h-3.72zm-22.32 0h3.72v3.72h-3.72zm22.32-3.72h3.72v3.72h-3.72zm-22.32 0h3.72v3.72h-3.72z" opacity=".20784"/></g><g transform="translate(-88.338)"><path d="m746.8 18.6h3.72v3.72h-3.72zm-3.72-3.72h3.72v3.72h-3.72zm-3.72-3.72h3.72v3.72h-3.72zm-3.72-3.72h3.72v3.72h-3.72zm18.6-7.44h3.72v3.72h-3.72zm-3.72 0h3.72v3.72h-3.72zm-18.6 0h3.72v3.72h-3.72zm-3.72 0h3.72v3.72h-3.72z" fill="#a4a4a4"/><path d="m754.24 40.92h3.72v3.72h-3.72zm-3.72 0h3.72v3.72h-3.72zm3.72-3.72h3.72v3.72h-3.72zm-3.72 0h3.72v3.72h-3.72zm3.72-3.72h3.72v3.72h-3.72zm-3.72 0h3.72v3.72h-3.72zm3.72-3.72h3.72v3.72h-3.72zm-3.72 0h3.72v3.72h-3.72zm3.72-3.72h3.72v3.72h-3.72zm-3.72 0h3.72v3.72h-3.72zm3.72-3.72h3.72v3.72h-3.72zm-3.72 0h3.72v3.72h-3.72zm3.72-3.72h3.72v3.72h-3.72zm-3.72 0h3.72v3.72h-3.72zm3.72-3.72h3.72v3.72h-3.72zm-3.72 0h3.72v3.72h-3.72zm3.72-3.72h3.72v3.72h-3.72zm-3.72 0h3.72v3.72h-3.72zm3.72-3.72h3.72v3.72h-3.72zm-3.72 0h3.72v3.72h-3.72zm3.72-3.72h3.72v3.72h-3.72zm-3.72 0h3.72v3.72h-3.72zm-18.6 37.2h3.72v3.72h-3.72zm-3.72 0h3.72v3.72h-3.72zm3.72-3.72h3.72v3.72h-3.72zm-3.72 0h3.72v3.72h-3.72zm3.72-3.72h3.72v3.72h-3.72zm-3.72 0h3.72v3.72h-3.72zm3.72-3.72h3.72v3.72h-3.72zm-3.72 0h3.72v3.72h-3.72zm3.72-3.72h3.72v3.72h-3.72zm-3.72 0h3.72v3.72h-3.72zm3.72-3.72h3.72v3.72h-3.72zm-3.72 0h3.72v3.72h-3.72zm3.72-3.72h3.72v3.72h-3.72zm-3.72 0h3.72v3.72h-3.72zm3.72-3.72h3.72v3.72h-3.72zm-3.72 0h3.72v3.72h-3.72zm3.72-3.72h3.72v3.72h-3.72zm-3.72 0h3.72v3.72h-3.72zm3.72-3.72h3.72v3.72h-3.72zm-3.72 0h3.72v3.72h-3.72zm3.72-3.72h3.72v3.72h-3.72zm-3.72 0h3.72v3.72h-3.72zm18.6 26.04h3.72v3.72h-3.72zm0-3.72h3.72v3.72h-3.72zm-3.72 0h3.72v3.72h-3.72zm3.72-3.72h3.72v3.72h-3.72zm-3.72 0h3.72v3.72h-3.72zm-3.72 0h3.72v3.72h-3.72zm3.72-3.72h3.72v3.72h-3.72zm-3.72 0h3.72v3.72h-3.72zm-3.72 0h3.72v3.72h-3.72zm3.72-3.72h3.72v3.72h-3.72zm-3.72 0h3.72v3.72h-3.72zm0-3.72h3.72v3.72h-3.72z" fill="#8a8a8a"/><path d="m750.52 44.64h3.72v3.72h-3.72zm-3.72 0h3.72v3.72h-3.72zm-18.6 0h3.72v3.72h-3.72zm-3.72 0h3.72v3.72h-3.72zm22.32-3.72h3.72v3.72h-3.72zm-22.32 0h3.72v3.72h-3.72zm22.32-3.72h3.72v3.72h-3.72zm-22.32 0h3.72v3.72h-3.72zm22.32-3.72h3.72v3.72h-3.72zm-3.72 0h3.72v3.72h-3.72zm-18.6 0h3.72v3.72h-3.72zm18.6-3.72h3.72v3.72h-3.72zm-3.72 0h3.72v3.72h-3.72zm-14.88 0h3.72v3.72h-3.72zm14.88-3.72h3.72v3.72h-3.72zm-3.72 0h3.72v3.72h-3.72zm-11.16 0h3.72v3.72h-3.72zm11.16-3.72h3.72v3.72h-3.72zm-11.16 0h3.72v3.72h-3.72zm0-3.72h3.72v3.72h-3.72zm22.32-3.72h3.72v3.72h-3.72zm-22.32 0h3.72v3.72h-3.72zm22.32-3.72h3.72v3.72h-3.72zm-22.32 0h3.72v3.72h-3.72zm22.32-3.72h3.72v3.72h-3.72zm-22.32 0h3.72v3.72h-3.72zm22.32-3.72h3.72v3.72h-3.72zm-22.32 0h3.72v3.72h-3.72z" opacity=".20784"/></g><g transform="translate(-251.26)"><path d="m880.72 37.2h3.72v3.72h-3.72zm-3.72-3.72h3.72v3.72h-3.72zm-3.72-3.72h3.72v3.72h-3.72zm-3.72-3.72h3.72v3.72h-3.72zm3.72-7.44h3.72v3.72h-3.72zm-3.72 0h3.72v3.72h-3.72zm-3.72 0h3.72v3.72h-3.72zm14.88-14.88h3.72v3.72h-3.72zm-3.72-3.72h3.72v3.72h-3.72zm-3.72 0h3.72v3.72h-3.72zm-3.72 0h3.72v3.72h-3.72zm-3.72 0h3.72v3.72h-3.72zm-3.72 0h3.72v3.72h-3.72zm-3.72 0h3.72v3.72h-3.72z" fill="#a4a4a4"/><path d="m880.72 40.92h3.72v3.72h-3.72zm-3.72 0h3.72v3.72h-3.72zm-14.88 0h3.72v3.72h-3.72zm-3.72 0h3.72v3.72h-3.72zm18.6-3.72h3.72v3.72h-3.72zm-3.72 0h3.72v3.72h-3.72zm-11.16 0h3.72v3.72h-3.72zm-3.72 0h3.72v3.72h-3.72zm14.88-3.72h3.72v3.72h-3.72zm-3.72 0h3.72v3.72h-3.72zm-7.44 0h3.72v3.72h-3.72zm-3.72 0h3.72v3.72h-3.72zm11.16-3.72h3.72v3.72h-3.72zm-3.72 0h3.72v3.72h-3.72zm-3.72 0h3.72v3.72h-3.72zm-3.72 0h3.72v3.72h-3.72zm7.44-3.72h3.72v3.72h-3.72zm-3.72 0h3.72v3.72h-3.72zm-3.72 0h3.72v3.72h-3.72zm18.6-3.72h3.72v3.72h-3.72zm-3.72 0h3.72v3.72h-3.72zm-3.72 0h3.72v3.72h-3.72zm-3.72 0h3.72v3.72h-3.72zm-3.72 0h3.72v3.72h-3.72zm-3.72 0h3.72v3.72h-3.72zm22.32-3.72h3.72v3.72h-3.72zm-3.72 0h3.72v3.72h-3.72zm-14.88 0h3.72v3.72h-3.72zm-3.72 0h3.72v3.72h-3.72zm22.32-3.72h3.72v3.72h-3.72zm-3.72 0h3.72v3.72h-3.72zm-14.88 0h3.72v3.72h-3.72zm-3.72 0h3.72v3.72h-3.72zm22.32-3.72h3.72v3.72h-3.72zm-3.72 0h3.72v3.72h-3.72zm-14.88 0h3.72v3.72h-3.72zm-3.72 0h3.72v3.72h-3.72zm22.32-3.72h3.72v3.72h-3.72zm-3.72 0h3.72v3.72h-3.72zm-14.88 0h3.72v3.72h-3.72zm-3.72 0h3.72v3.72h-3.72zm18.6-3.72h3.72v3.72h-3.72zm-3.72 0h3.72v3.72h-3.72zm-3.72 0h3.72v3.72h-3.72zm-3.72 0h3.72v3.72h-3.72zm-3.72 0h3.72v3.72h-3.72zm-3.72 0h3.72v3.72h-3.72z" fill="#8a8a8a"/><path d="m877 44.64h3.72v3.72h-3.72zm-3.72 0h3.72v3.72h-3.72zm-14.88 0h3.72v3.72h-3.72zm-3.72 0h3.72v3.72h-3.72zm18.6-3.72h3.72v3.72h-3.72zm-3.72 0h3.72v3.72h-3.72zm-14.88 0h3.72v3.72h-3.72zm14.88-3.72h3.72v3.72h-3.72zm-3.72 0h3.72v3.72h-3.72zm-11.16 0h3.72v3.72h-3.72zm11.16-3.72h3.72v3.72h-3.72zm-11.16 0h3.72v3.72h-3.72zm0-3.72h3.72v3.72h-3.72zm18.6-3.72h3.72v3.72h-3.72zm-18.6 0h3.72v3.72h-3.72zm0-3.72h3.72v3.72h-3.72zm0-3.72h3.72v3.72h-3.72zm18.6-3.72h3.72v3.72h-3.72zm-18.6 0h3.72v3.72h-3.72zm18.6-3.72h3.72v3.72h-3.72zm-18.6 0h3.72v3.72h-3.72zm18.6-3.72h3.72v3.72h-3.72zm-3.72 0h3.72v3.72h-3.72zm-3.72 0h3.72v3.72h-3.72zm-11.16 0h3.72v3.72h-3.72zm0-3.72h3.72v3.72h-3.72z" opacity=".20784"/></g><g transform="translate(-295.33 -162.96)"><g transform="translate(-129.97 162.96)"><path d="m880.72 37.2h3.72v3.72h-3.72zm-3.72-3.72h3.72v3.72h-3.72zm-3.72-3.72h3.72v3.72h-3.72zm-3.72-3.72h3.72v3.72h-3.72zm3.72-7.44h3.72v3.72h-3.72zm-3.72 0h3.72v3.72h-3.72zm-3.72 0h3.72v3.72h-3.72zm14.88-14.88h3.72v3.72h-3.72zm-3.72-3.72h3.72v3.72h-3.72zm-3.72 0h3.72v3.72h-3.72zm-3.72 0h3.72v3.72h-3.72zm-3.72 0h3.72v3.72h-3.72zm-3.72 0h3.72v3.72h-3.72zm-3.72 0h3.72v3.72h-3.72z" fill="#a4a4a4"/><path d="m880.72 40.92h3.72v3.72h-3.72zm-3.72 0h3.72v3.72h-3.72zm-14.88 0h3.72v3.72h-3.72zm-3.72 0h3.72v3.72h-3.72zm18.6-3.72h3.72v3.72h-3.72zm-3.72 0h3.72v3.72h-3.72zm-11.16 0h3.72v3.72h-3.72zm-3.72 0h3.72v3.72h-3.72zm14.88-3.72h3.72v3.72h-3.72zm-3.72 0h3.72v3.72h-3.72zm-7.44 0h3.72v3.72h-3.72zm-3.72 0h3.72v3.72h-3.72zm11.16-3.72h3.72v3.72h-3.72zm-3.72 0h3.72v3.72h-3.72zm-3.72 0h3.72v3.72h-3.72zm-3.72 0h3.72v3.72h-3.72zm7.44-3.72h3.72v3.72h-3.72zm-3.72 0h3.72v3.72h-3.72zm-3.72 0h3.72v3.72h-3.72zm18.6-3.72h3.72v3.72h-3.72zm-3.72 0h3.72v3.72h-3.72zm-3.72 0h3.72v3.72h-3.72zm-3.72 0h3.72v3.72h-3.72zm-3.72 0h3.72v3.72h-3.72zm-3.72 0h3.72v3.72h-3.72zm22.32-3.72h3.72v3.72h-3.72zm-3.72 0h3.72v3.72h-3.72zm-14.88 0h3.72v3.72h-3.72zm-3.72 0h3.72v3.72h-3.72zm22.32-3.72h3.72v3.72h-3.72zm-3.72 0h3.72v3.72h-3.72zm-14.88 0h3.72v3.72h-3.72zm-3.72 0h3.72v3.72h-3.72zm22.32-3.72h3.72v3.72h-3.72zm-3.72 0h3.72v3.72h-3.72zm-14.88 0h3.72v3.72h-3.72zm-3.72 0h3.72v3.72h-3.72zm22.32-3.72h3.72v3.72h-3.72zm-3.72 0h3.72v3.72h-3.72zm-14.88 0h3.72v3.72h-3.72zm-3.72 0h3.72v3.72h-3.72zm18.6-3.72h3.72v3.72h-3.72zm-3.72 0h3.72v3.72h-3.72zm-3.72 0h3.72v3.72h-3.72zm-3.72 0h3.72v3.72h-3.72zm-3.72 0h3.72v3.72h-3.72zm-3.72 0h3.72v3.72h-3.72z" fill="#8a8a8a"/><path d="m877 44.64h3.72v3.72h-3.72zm-3.72 0h3.72v3.72h-3.72zm-14.88 0h3.72v3.72h-3.72zm-3.72 0h3.72v3.72h-3.72zm18.6-3.72h3.72v3.72h-3.72zm-3.72 0h3.72v3.72h-3.72zm-14.88 0h3.72v3.72h-3.72zm14.88-3.72h3.72v3.72h-3.72zm-3.72 0h3.72v3.72h-3.72zm-11.16 0h3.72v3.72h-3.72zm11.16-3.72h3.72v3.72h-3.72zm-11.16 0h3.72v3.72h-3.72zm0-3.72h3.72v3.72h-3.72zm18.6-3.72h3.72v3.72h-3.72zm-18.6 0h3.72v3.72h-3.72zm0-3.72h3.72v3.72h-3.72zm0-3.72h3.72v3.72h-3.72zm18.6-3.72h3.72v3.72h-3.72zm-18.6 0h3.72v3.72h-3.72zm18.6-3.72h3.72v3.72h-3.72zm-18.6 0h3.72v3.72h-3.72zm18.6-3.72h3.72v3.72h-3.72zm-3.72 0h3.72v3.72h-3.72zm-3.72 0h3.72v3.72h-3.72zm-11.16 0h3.72v3.72h-3.72zm0-3.72h3.72v3.72h-3.72z" opacity=".20784"/></g></g><g transform="translate(-205.16)"><path d="m932.8 0h3.72v3.72h-3.72zm-3.72 0h3.72v3.72h-3.72zm-3.72 0h3.72v3.72h-3.72zm-3.72 0h3.72v3.72h-3.72zm-3.72 0h3.72v3.72h-3.72zm-3.72 0h3.72v3.72h-3.72z" fill="#a4a4a4"/><path d="m925.36 40.92h3.72v3.72h-3.72zm-3.72 0h3.72v3.72h-3.72zm3.72-3.72h3.72v3.72h-3.72zm-3.72 0h3.72v3.72h-3.72zm3.72-3.72h3.72v3.72h-3.72zm-3.72 0h3.72v3.72h-3.72zm3.72-3.72h3.72v3.72h-3.72zm-3.72 0h3.72v3.72h-3.72zm3.72-3.72h3.72v3.72h-3.72zm-3.72 0h3.72v3.72h-3.72zm3.72-3.72h3.72v3.72h-3.72zm-3.72 0h3.72v3.72h-3.72zm3.72-3.72h3.72v3.72h-3.72zm-3.72 0h3.72v3.72h-3.72zm3.72-3.72h3.72v3.72h-3.72zm-3.72 0h3.72v3.72h-3.72zm3.72-3.72h3.72v3.72h-3.72zm-3.72 0h3.72v3.72h-3.72zm3.72-3.72h3.72v3.72h-3.72zm-3.72 0h3.72v3.72h-3.72zm11.16-3.72h3.72v3.72h-3.72zm-3.72 0h3.72v3.72h-3.72zm-3.72 0h3.72v3.72h-3.72zm-3.72 0h3.72v3.72h-3.72zm-3.72 0h3.72v3.72h-3.72zm-3.72 0h3.72v3.72h-3.72z" fill="#8a8a8a"/><path d="m921.64 44.64h3.72v3.72h-3.72zm-3.72 0h3.72v3.72h-3.72zm0-3.72h3.72v3.72h-3.72zm0-3.72h3.72v3.72h-3.72zm0-3.72h3.72v3.72h-3.72zm0-3.72h3.72v3.72h-3.72zm0-3.72h3.72v3.72h-3.72zm0-3.72h3.72v3.72h-3.72zm0-3.72h3.72v3.72h-3.72zm0-3.72h3.72v3.72h-3.72zm0-3.72h3.72v3.72h-3.72zm11.16-3.72h3.72v3.72h-3.72zm-11.16 0h3.72v3.72h-3.72zm-3.72 0h3.72v3.72h-3.72zm-3.72 0h3.72v3.72h-3.72zm0-3.72h3.72v3.72h-3.72z" opacity=".20784"/></g><g transform="translate(-533.91)"><path d="m932.8 0h3.72v3.72h-3.72zm-3.72 0h3.72v3.72h-3.72zm-3.72 0h3.72v3.72h-3.72zm-3.72 0h3.72v3.72h-3.72zm-3.72 0h3.72v3.72h-3.72zm-3.72 0h3.72v3.72h-3.72z" fill="#e4a26a"/><path d="m925.36 40.92h3.72v3.72h-3.72zm-3.72 0h3.72v3.72h-3.72zm3.72-3.72h3.72v3.72h-3.72zm-3.72 0h3.72v3.72h-3.72zm3.72-3.72h3.72v3.72h-3.72zm-3.72 0h3.72v3.72h-3.72zm3.72-3.72h3.72v3.72h-3.72zm-3.72 0h3.72v3.72h-3.72zm3.72-3.72h3.72v3.72h-3.72zm-3.72 0h3.72v3.72h-3.72zm3.72-3.72h3.72v3.72h-3.72zm-3.72 0h3.72v3.72h-3.72zm3.72-3.72h3.72v3.72h-3.72zm-3.72 0h3.72v3.72h-3.72zm3.72-3.72h3.72v3.72h-3.72zm-3.72 0h3.72v3.72h-3.72zm3.72-3.72h3.72v3.72h-3.72zm-3.72 0h3.72v3.72h-3.72zm3.72-3.72h3.72v3.72h-3.72zm-3.72 0h3.72v3.72h-3.72zm11.16-3.72h3.72v3.72h-3.72zm-3.72 0h3.72v3.72h-3.72zm-3.72 0h3.72v3.72h-3.72zm-3.72 0h3.72v3.72h-3.72zm-3.72 0h3.72v3.72h-3.72zm-3.72 0h3.72v3.72h-3.72z" fill="#ce8a51"/><path d="m921.64 44.64h3.72v3.72h-3.72zm-3.72 0h3.72v3.72h-3.72zm0-3.72h3.72v3.72h-3.72zm0-3.72h3.72v3.72h-3.72zm0-3.72h3.72v3.72h-3.72zm0-3.72h3.72v3.72h-3.72zm0-3.72h3.72v3.72h-3.72zm0-3.72h3.72v3.72h-3.72zm0-3.72h3.72v3.72h-3.72zm0-3.72h3.72v3.72h-3.72zm0-3.72h3.72v3.72h-3.72zm11.16-3.72h3.72v3.72h-3.72zm-11.16 0h3.72v3.72h-3.72zm-3.72 0h3.72v3.72h-3.72zm-3.72 0h3.72v3.72h-3.72zm0-3.72h3.72v3.72h-3.72z" opacity=".20784"/></g><g transform="translate(-910.48)"><path d="m932.8 0h3.72v3.72h-3.72zm-3.72 0h3.72v3.72h-3.72zm-3.72 0h3.72v3.72h-3.72zm-3.72 0h3.72v3.72h-3.72zm-3.72 0h3.72v3.72h-3.72zm-3.72 0h3.72v3.72h-3.72z" fill="#e4a26a"/><path d="m925.36 40.92h3.72v3.72h-3.72zm-3.72 0h3.72v3.72h-3.72zm3.72-3.72h3.72v3.72h-3.72zm-3.72 0h3.72v3.72h-3.72zm3.72-3.72h3.72v3.72h-3.72zm-3.72 0h3.72v3.72h-3.72zm3.72-3.72h3.72v3.72h-3.72zm-3.72 0h3.72v3.72h-3.72zm3.72-3.72h3.72v3.72h-3.72zm-3.72 0h3.72v3.72h-3.72zm3.72-3.72h3.72v3.72h-3.72zm-3.72 0h3.72v3.72h-3.72zm3.72-3.72h3.72v3.72h-3.72zm-3.72 0h3.72v3.72h-3.72zm3.72-3.72h3.72v3.72h-3.72zm-3.72 0h3.72v3.72h-3.72zm3.72-3.72h3.72v3.72h-3.72zm-3.72 0h3.72v3.72h-3.72zm3.72-3.72h3.72v3.72h-3.72zm-3.72 0h3.72v3.72h-3.72zm11.16-3.72h3.72v3.72h-3.72zm-3.72 0h3.72v3.72h-3.72zm-3.72 0h3.72v3.72h-3.72zm-3.72 0h3.72v3.72h-3.72zm-3.72 0h3.72v3.72h-3.72zm-3.72 0h3.72v3.72h-3.72z" fill="#ce8a51"/><path d="m921.64 44.64h3.72v3.72h-3.72zm-3.72 0h3.72v3.72h-3.72zm0-3.72h3.72v3.72h-3.72zm0-3.72h3.72v3.72h-3.72zm0-3.72h3.72v3.72h-3.72zm0-3.72h3.72v3.72h-3.72zm0-3.72h3.72v3.72h-3.72zm0-3.72h3.72v3.72h-3.72zm0-3.72h3.72v3.72h-3.72zm0-3.72h3.72v3.72h-3.72zm0-3.72h3.72v3.72h-3.72zm11.16-3.72h3.72v3.72h-3.72zm-11.16 0h3.72v3.72h-3.72zm-3.72 0h3.72v3.72h-3.72zm-3.72 0h3.72v3.72h-3.72zm0-3.72h3.72v3.72h-3.72z" opacity=".20784"/></g><g transform="translate(-814.48)"><path d="m932.8 0h3.72v3.72h-3.72zm-3.72 0h3.72v3.72h-3.72zm-3.72 0h3.72v3.72h-3.72zm-3.72 0h3.72v3.72h-3.72zm-3.72 0h3.72v3.72h-3.72zm-3.72 0h3.72v3.72h-3.72z" fill="#e4a26a"/><path d="m925.36 40.92h3.72v3.72h-3.72zm-3.72 0h3.72v3.72h-3.72zm3.72-3.72h3.72v3.72h-3.72zm-3.72 0h3.72v3.72h-3.72zm3.72-3.72h3.72v3.72h-3.72zm-3.72 0h3.72v3.72h-3.72zm3.72-3.72h3.72v3.72h-3.72zm-3.72 0h3.72v3.72h-3.72zm3.72-3.72h3.72v3.72h-3.72zm-3.72 0h3.72v3.72h-3.72zm3.72-3.72h3.72v3.72h-3.72zm-3.72 0h3.72v3.72h-3.72zm3.72-3.72h3.72v3.72h-3.72zm-3.72 0h3.72v3.72h-3.72zm3.72-3.72h3.72v3.72h-3.72zm-3.72 0h3.72v3.72h-3.72zm3.72-3.72h3.72v3.72h-3.72zm-3.72 0h3.72v3.72h-3.72zm3.72-3.72h3.72v3.72h-3.72zm-3.72 0h3.72v3.72h-3.72zm11.16-3.72h3.72v3.72h-3.72zm-3.72 0h3.72v3.72h-3.72zm-3.72 0h3.72v3.72h-3.72zm-3.72 0h3.72v3.72h-3.72zm-3.72 0h3.72v3.72h-3.72zm-3.72 0h3.72v3.72h-3.72z" fill="#ce8a51"/><path d="m921.64 44.64h3.72v3.72h-3.72zm-3.72 0h3.72v3.72h-3.72zm0-3.72h3.72v3.72h-3.72zm0-3.72h3.72v3.72h-3.72zm0-3.72h3.72v3.72h-3.72zm0-3.72h3.72v3.72h-3.72zm0-3.72h3.72v3.72h-3.72zm0-3.72h3.72v3.72h-3.72zm0-3.72h3.72v3.72h-3.72zm0-3.72h3.72v3.72h-3.72zm0-3.72h3.72v3.72h-3.72zm11.16-3.72h3.72v3.72h-3.72zm-11.16 0h3.72v3.72h-3.72zm-3.72 0h3.72v3.72h-3.72zm-3.72 0h3.72v3.72h-3.72zm0-3.72h3.72v3.72h-3.72z" opacity=".20784"/></g><g transform="translate(-770.02)"><path d="m932.8 0h3.72v3.72h-3.72zm-3.72 0h3.72v3.72h-3.72zm-3.72 0h3.72v3.72h-3.72zm-3.72 0h3.72v3.72h-3.72zm-3.72 0h3.72v3.72h-3.72zm-3.72 0h3.72v3.72h-3.72z" fill="#e4a26a"/><path d="m925.36 40.92h3.72v3.72h-3.72zm-3.72 0h3.72v3.72h-3.72zm3.72-3.72h3.72v3.72h-3.72zm-3.72 0h3.72v3.72h-3.72zm3.72-3.72h3.72v3.72h-3.72zm-3.72 0h3.72v3.72h-3.72zm3.72-3.72h3.72v3.72h-3.72zm-3.72 0h3.72v3.72h-3.72zm3.72-3.72h3.72v3.72h-3.72zm-3.72 0h3.72v3.72h-3.72zm3.72-3.72h3.72v3.72h-3.72zm-3.72 0h3.72v3.72h-3.72zm3.72-3.72h3.72v3.72h-3.72zm-3.72 0h3.72v3.72h-3.72zm3.72-3.72h3.72v3.72h-3.72zm-3.72 0h3.72v3.72h-3.72zm3.72-3.72h3.72v3.72h-3.72zm-3.72 0h3.72v3.72h-3.72zm3.72-3.72h3.72v3.72h-3.72zm-3.72 0h3.72v3.72h-3.72zm11.16-3.72h3.72v3.72h-3.72zm-3.72 0h3.72v3.72h-3.72zm-3.72 0h3.72v3.72h-3.72zm-3.72 0h3.72v3.72h-3.72zm-3.72 0h3.72v3.72h-3.72zm-3.72 0h3.72v3.72h-3.72z" fill="#ce8a51"/><path d="m921.64 44.64h3.72v3.72h-3.72zm-3.72 0h3.72v3.72h-3.72zm0-3.72h3.72v3.72h-3.72zm0-3.72h3.72v3.72h-3.72zm0-3.72h3.72v3.72h-3.72zm0-3.72h3.72v3.72h-3.72zm0-3.72h3.72v3.72h-3.72zm0-3.72h3.72v3.72h-3.72zm0-3.72h3.72v3.72h-3.72zm0-3.72h3.72v3.72h-3.72zm0-3.72h3.72v3.72h-3.72zm11.16-3.72h3.72v3.72h-3.72zm-11.16 0h3.72v3.72h-3.72zm-3.72 0h3.72v3.72h-3.72zm-3.72 0h3.72v3.72h-3.72zm0-3.72h3.72v3.72h-3.72z" opacity=".20784"/></g></svg>
